solid OpenSCAD_Model
  facet normal 0 0 -1
    outer loop
      vertex 12 4 0
      vertex 36 4 0
      vertex 36 -4 0
    endloop
  endfacet
  facet normal -0 0 -1
    outer loop
      vertex -1.1279 -0.22435 0
      vertex -2.98555 -0.294037 0
      vertex -1.14445 -0.112717 0
    endloop
  endfacet
  facet normal 0 0 -1
    outer loop
      vertex 12 -4 0
      vertex 10 -2.2 0
      vertex 10 2 0
    endloop
  endfacet
  facet normal 0 0 -1
    outer loop
      vertex -1.06245 0.440079 0
      vertex -2.77164 1.14804 0
      vertex -1.01421 0.542099 0
    endloop
  endfacet
  facet normal 0 0 -1
    outer loop
      vertex -1.10048 0.333817 0
      vertex -2.87082 0.87085 0
      vertex -2.77164 1.14804 0
    endloop
  endfacet
  facet normal 0 0 -1
    outer loop
      vertex -1.1279 0.22435 0
      vertex -2.94235 0.585266 0
      vertex -1.10048 0.333817 0
    endloop
  endfacet
  facet normal 0 0 -1
    outer loop
      vertex -1.14445 0.112717 0
      vertex -2.98555 0.294037 0
      vertex -1.1279 0.22435 0
    endloop
  endfacet
  facet normal 0 0 -1
    outer loop
      vertex -1.14999 0 0
      vertex -3 0 0
      vertex -2.98555 0.294037 0
    endloop
  endfacet
  facet normal -0 0 -1
    outer loop
      vertex -1.14445 -0.112717 0
      vertex -2.98555 -0.294037 0
      vertex -1.14999 0 0
    endloop
  endfacet
  facet normal -0 0 -1
    outer loop
      vertex -1.10048 -0.333817 0
      vertex -2.94235 -0.585266 0
      vertex -1.1279 -0.22435 0
    endloop
  endfacet
  facet normal 0 0 -1
    outer loop
      vertex -2.77164 -1.14804 0
      vertex -2.87082 -0.87085 0
      vertex -1.10048 -0.333817 0
    endloop
  endfacet
  facet normal -0 0 -1
    outer loop
      vertex -1.01421 -0.542099 0
      vertex -2.77164 -1.14804 0
      vertex -1.06245 -0.440079 0
    endloop
  endfacet
  facet normal 0 0 -1
    outer loop
      vertex -2.4944 -1.6667 0
      vertex -2.64575 -1.41418 0
      vertex -1.01421 -0.542099 0
    endloop
  endfacet
  facet normal 0 0 -1
    outer loop
      vertex 0.294037 -2.98555 0
      vertex 0 -1.14999 0
      vertex 0.112717 -1.14445 0
    endloop
  endfacet
  facet normal 0 0 -1
    outer loop
      vertex -1.6667 -2.4944 0
      vertex -0.638901 -0.956177 0
      vertex -0.542099 -1.01421 0
    endloop
  endfacet
  facet normal 0 0 -1
    outer loop
      vertex -1.41418 -2.64575 0
      vertex -1.6667 -2.4944 0
      vertex -0.542099 -1.01421 0
    endloop
  endfacet
  facet normal 0 0 -1
    outer loop
      vertex -1.14804 -2.77164 0
      vertex -1.41418 -2.64575 0
      vertex -0.542099 -1.01421 0
    endloop
  endfacet
  facet normal -0 0 -1
    outer loop
      vertex -0.440079 -1.06245 0
      vertex -1.14804 -2.77164 0
      vertex -0.542099 -1.01421 0
    endloop
  endfacet
  facet normal 0 -0 -1
    outer loop
      vertex -0.440079 -1.06245 0
      vertex -0.333817 -1.10048 0
      vertex -1.14804 -2.77164 0
    endloop
  endfacet
  facet normal 0 0 -1
    outer loop
      vertex -1.14804 -2.77164 0
      vertex -0.333817 -1.10048 0
      vertex -0.87085 -2.87082 0
    endloop
  endfacet
  facet normal 0 0 -1
    outer loop
      vertex -0.87085 -2.87082 0
      vertex -0.333817 -1.10048 0
      vertex -0.585266 -2.94235 0
    endloop
  endfacet
  facet normal 0 0 -1
    outer loop
      vertex -0.585266 -2.94235 0
      vertex -0.333817 -1.10048 0
      vertex -0.22435 -1.1279 0
    endloop
  endfacet
  facet normal 0 0 -1
    outer loop
      vertex -0.294037 -2.98555 0
      vertex -0.585266 -2.94235 0
      vertex -0.22435 -1.1279 0
    endloop
  endfacet
  facet normal -0 0 -1
    outer loop
      vertex -0.112717 -1.14445 0
      vertex -0.294037 -2.98555 0
      vertex -0.22435 -1.1279 0
    endloop
  endfacet
  facet normal 0 -0 -1
    outer loop
      vertex -0.112717 -1.14445 0
      vertex 0 -1.14999 0
      vertex -0.294037 -2.98555 0
    endloop
  endfacet
  facet normal 0 0 -1
    outer loop
      vertex -0.294037 -2.98555 0
      vertex 0 -1.14999 0
      vertex 0 -3 0
    endloop
  endfacet
  facet normal 0 0 -1
    outer loop
      vertex 0 -3 0
      vertex 0 -1.14999 0
      vertex 0.294037 -2.98555 0
    endloop
  endfacet
  facet normal 0 0 -1
    outer loop
      vertex 0.22435 -1.1279 0
      vertex 0.333817 -1.10048 0
      vertex 0.585266 -2.94235 0
    endloop
  endfacet
  facet normal 0 -0 -1
    outer loop
      vertex 12 4 0
      vertex 12 -4 0
      vertex 10 2 0
    endloop
  endfacet
  facet normal 0 0 -1
    outer loop
      vertex 12 4 0
      vertex 36 -4 0
      vertex 12 -4 0
    endloop
  endfacet
  facet normal 0 -0 -1
    outer loop
      vertex 0.440079 -1.06245 0
      vertex 1.14804 -2.77164 0
      vertex 0.333817 -1.10048 0
    endloop
  endfacet
  facet normal 0 0 -1
    outer loop
      vertex 0.542099 -1.01421 0
      vertex 1.41418 -2.64575 0
      vertex 1.14804 -2.77164 0
    endloop
  endfacet
  facet normal 0 -0 -1
    outer loop
      vertex 0.729538 -0.888962 0
      vertex 1.6667 -2.4944 0
      vertex 0.638901 -0.956177 0
    endloop
  endfacet
  facet normal 0 0 -1
    outer loop
      vertex 2.0345 -2.2 0
      vertex 0.729538 -0.888962 0
      vertex 0.813171 -0.813171 0
    endloop
  endfacet
  facet normal 0 -0 -1
    outer loop
      vertex 1.06245 -0.440079 0
      vertex 2.0345 -2.2 0
      vertex 1.01421 -0.542099 0
    endloop
  endfacet
  facet normal 0 0 -1
    outer loop
      vertex 1.10048 -0.333817 0
      vertex 1.1279 -0.22435 0
      vertex 2.0345 -2.2 0
    endloop
  endfacet
  facet normal 0 0 -1
    outer loop
      vertex 10 -2.2 0
      vertex 2.0345 -2.2 0
      vertex 2.23126 2 0
    endloop
  endfacet
  facet normal -0 0 -1
    outer loop
      vertex -0.888962 -0.729538 0
      vertex -2.4944 -1.6667 0
      vertex -0.956177 -0.638901 0
    endloop
  endfacet
  facet normal -0 -0 -1
    outer loop
      vertex 10 2 0
      vertex 10 -2.2 0
      vertex 2.23126 2 0
    endloop
  endfacet
  facet normal 0 0 -1
    outer loop
      vertex 0.22435 1.1279 0
      vertex 0.585266 2.94235 0
      vertex 0.333817 1.10048 0
    endloop
  endfacet
  facet normal 0 0 -1
    outer loop
      vertex -1.90317 -2.31903 0
      vertex -0.729538 -0.888962 0
      vertex -1.6667 -2.4944 0
    endloop
  endfacet
  facet normal 0 -0 -1
    outer loop
      vertex -0.729538 -0.888962 0
      vertex -0.638901 -0.956177 0
      vertex -1.6667 -2.4944 0
    endloop
  endfacet
  facet normal 0 0 -1
    outer loop
      vertex -2.12131 -2.12131 0
      vertex -0.813171 -0.813171 0
      vertex -1.90317 -2.31903 0
    endloop
  endfacet
  facet normal 0 -0 -1
    outer loop
      vertex -0.813171 -0.813171 0
      vertex -0.729538 -0.888962 0
      vertex -1.90317 -2.31903 0
    endloop
  endfacet
  facet normal 0 0 -1
    outer loop
      vertex -2.31903 -1.90317 0
      vertex -0.888962 -0.729538 0
      vertex -0.813171 -0.813171 0
    endloop
  endfacet
  facet normal 0 0 -1
    outer loop
      vertex -2.31903 -1.90317 0
      vertex -0.813171 -0.813171 0
      vertex -2.12131 -2.12131 0
    endloop
  endfacet
  facet normal 0 0 -1
    outer loop
      vertex -2.31903 -1.90317 0
      vertex -2.4944 -1.6667 0
      vertex -0.888962 -0.729538 0
    endloop
  endfacet
  facet normal 0 0 -1
    outer loop
      vertex -2.4944 -1.6667 0
      vertex -1.01421 -0.542099 0
      vertex -0.956177 -0.638901 0
    endloop
  endfacet
  facet normal 0 0 -1
    outer loop
      vertex -2.64575 -1.41418 0
      vertex -2.77164 -1.14804 0
      vertex -1.01421 -0.542099 0
    endloop
  endfacet
  facet normal 0 0 -1
    outer loop
      vertex -2.77164 -1.14804 0
      vertex -1.10048 -0.333817 0
      vertex -1.06245 -0.440079 0
    endloop
  endfacet
  facet normal 0 0 -1
    outer loop
      vertex -2.87082 -0.87085 0
      vertex -2.94235 -0.585266 0
      vertex -1.10048 -0.333817 0
    endloop
  endfacet
  facet normal 0 0 -1
    outer loop
      vertex -2.94235 -0.585266 0
      vertex -2.98555 -0.294037 0
      vertex -1.1279 -0.22435 0
    endloop
  endfacet
  facet normal -0 0 -1
    outer loop
      vertex -1.14999 0 0
      vertex -2.98555 -0.294037 0
      vertex -3 0 0
    endloop
  endfacet
  facet normal -0 0 -1
    outer loop
      vertex -1.14445 0.112717 0
      vertex -1.14999 0 0
      vertex -2.98555 0.294037 0
    endloop
  endfacet
  facet normal 0 0 -1
    outer loop
      vertex -1.1279 0.22435 0
      vertex -2.98555 0.294037 0
      vertex -2.94235 0.585266 0
    endloop
  endfacet
  facet normal 0 0 -1
    outer loop
      vertex -1.10048 0.333817 0
      vertex -2.94235 0.585266 0
      vertex -2.87082 0.87085 0
    endloop
  endfacet
  facet normal -0 0 -1
    outer loop
      vertex -1.06245 0.440079 0
      vertex -1.10048 0.333817 0
      vertex -2.77164 1.14804 0
    endloop
  endfacet
  facet normal 0 0 -1
    outer loop
      vertex -1.01421 0.542099 0
      vertex -2.77164 1.14804 0
      vertex -2.64575 1.41418 0
    endloop
  endfacet
  facet normal 0 0 -1
    outer loop
      vertex -2.4944 1.6667 0
      vertex -0.956177 0.638901 0
      vertex -1.01421 0.542099 0
    endloop
  endfacet
  facet normal 0 -0 -1
    outer loop
      vertex -2.4944 1.6667 0
      vertex -1.01421 0.542099 0
      vertex -2.64575 1.41418 0
    endloop
  endfacet
  facet normal 0 -0 -1
    outer loop
      vertex -2.31903 1.90317 0
      vertex -0.888962 0.729538 0
      vertex -2.4944 1.6667 0
    endloop
  endfacet
  facet normal -0 0 -1
    outer loop
      vertex -0.888962 0.729538 0
      vertex -0.956177 0.638901 0
      vertex -2.4944 1.6667 0
    endloop
  endfacet
  facet normal 0 -0 -1
    outer loop
      vertex -2.12131 2.12131 0
      vertex -0.813171 0.813171 0
      vertex -2.31903 1.90317 0
    endloop
  endfacet
  facet normal -0 0 -1
    outer loop
      vertex -0.813171 0.813171 0
      vertex -0.888962 0.729538 0
      vertex -2.31903 1.90317 0
    endloop
  endfacet
  facet normal 0 0 -1
    outer loop
      vertex -1.90317 2.31903 0
      vertex -0.729538 0.888962 0
      vertex -0.813171 0.813171 0
    endloop
  endfacet
  facet normal 0 -0 -1
    outer loop
      vertex -1.90317 2.31903 0
      vertex -0.813171 0.813171 0
      vertex -2.12131 2.12131 0
    endloop
  endfacet
  facet normal 0 0 -1
    outer loop
      vertex -1.6667 2.4944 0
      vertex -0.638901 0.956177 0
      vertex -0.729538 0.888962 0
    endloop
  endfacet
  facet normal 0 -0 -1
    outer loop
      vertex -1.6667 2.4944 0
      vertex -0.729538 0.888962 0
      vertex -1.90317 2.31903 0
    endloop
  endfacet
  facet normal 0 -0 -1
    outer loop
      vertex -1.41418 2.64575 0
      vertex -0.542099 1.01421 0
      vertex -1.6667 2.4944 0
    endloop
  endfacet
  facet normal -0 0 -1
    outer loop
      vertex -0.542099 1.01421 0
      vertex -0.638901 0.956177 0
      vertex -1.6667 2.4944 0
    endloop
  endfacet
  facet normal 0 0 -1
    outer loop
      vertex -1.14804 2.77164 0
      vertex -0.440079 1.06245 0
      vertex -0.542099 1.01421 0
    endloop
  endfacet
  facet normal 0 -0 -1
    outer loop
      vertex -1.14804 2.77164 0
      vertex -0.542099 1.01421 0
      vertex -1.41418 2.64575 0
    endloop
  endfacet
  facet normal 0 -0 -1
    outer loop
      vertex -0.87085 2.87082 0
      vertex -0.333817 1.10048 0
      vertex -1.14804 2.77164 0
    endloop
  endfacet
  facet normal -0 0 -1
    outer loop
      vertex -0.333817 1.10048 0
      vertex -0.440079 1.06245 0
      vertex -1.14804 2.77164 0
    endloop
  endfacet
  facet normal 0 0 -1
    outer loop
      vertex -0.585266 2.94235 0
      vertex -0.22435 1.1279 0
      vertex -0.333817 1.10048 0
    endloop
  endfacet
  facet normal 0 -0 -1
    outer loop
      vertex -0.585266 2.94235 0
      vertex -0.333817 1.10048 0
      vertex -0.87085 2.87082 0
    endloop
  endfacet
  facet normal 0 0 -1
    outer loop
      vertex -0.294037 2.98555 0
      vertex -0.112717 1.14445 0
      vertex -0.22435 1.1279 0
    endloop
  endfacet
  facet normal 0 -0 -1
    outer loop
      vertex -0.294037 2.98555 0
      vertex -0.22435 1.1279 0
      vertex -0.585266 2.94235 0
    endloop
  endfacet
  facet normal 0 -0 -1
    outer loop
      vertex 0 3 0
      vertex 0 1.14999 0
      vertex -0.294037 2.98555 0
    endloop
  endfacet
  facet normal -0 0 -1
    outer loop
      vertex 0 1.14999 0
      vertex -0.112717 1.14445 0
      vertex -0.294037 2.98555 0
    endloop
  endfacet
  facet normal 0 0 -1
    outer loop
      vertex 0.294037 2.98555 0
      vertex 0.112717 1.14445 0
      vertex 0 1.14999 0
    endloop
  endfacet
  facet normal -0 0 -1
    outer loop
      vertex 0.294037 2.98555 0
      vertex 0 1.14999 0
      vertex 0 3 0
    endloop
  endfacet
  facet normal -0 0 -1
    outer loop
      vertex 0.585266 2.94235 0
      vertex 0.22435 1.1279 0
      vertex 0.294037 2.98555 0
    endloop
  endfacet
  facet normal 0 0 -1
    outer loop
      vertex 0.22435 1.1279 0
      vertex 0.112717 1.14445 0
      vertex 0.294037 2.98555 0
    endloop
  endfacet
  facet normal 0 0 -1
    outer loop
      vertex 0.333817 1.10048 0
      vertex 0.585266 2.94235 0
      vertex 0.87085 2.87082 0
    endloop
  endfacet
  facet normal 0 -0 -1
    outer loop
      vertex 0.87085 2.87082 0
      vertex 1.14804 2.77164 0
      vertex 0.333817 1.10048 0
    endloop
  endfacet
  facet normal 0 0 -1
    outer loop
      vertex 0.333817 1.10048 0
      vertex 1.14804 2.77164 0
      vertex 0.440079 1.06245 0
    endloop
  endfacet
  facet normal 0 0 -1
    outer loop
      vertex 0.440079 1.06245 0
      vertex 1.14804 2.77164 0
      vertex 0.542099 1.01421 0
    endloop
  endfacet
  facet normal 0 0 -1
    outer loop
      vertex 0.542099 1.01421 0
      vertex 1.14804 2.77164 0
      vertex 1.41418 2.64575 0
    endloop
  endfacet
  facet normal 0 0 -1
    outer loop
      vertex 0.542099 1.01421 0
      vertex 1.41418 2.64575 0
      vertex 1.6667 2.4944 0
    endloop
  endfacet
  facet normal 0 0 -1
    outer loop
      vertex 0.638901 0.956177 0
      vertex 0.542099 1.01421 0
      vertex 1.6667 2.4944 0
    endloop
  endfacet
  facet normal 0 0 -1
    outer loop
      vertex 0.729538 0.888962 0
      vertex 0.638901 0.956177 0
      vertex 1.6667 2.4944 0
    endloop
  endfacet
  facet normal -0 0 -1
    outer loop
      vertex 1.90317 2.31903 0
      vertex 0.729538 0.888962 0
      vertex 1.6667 2.4944 0
    endloop
  endfacet
  facet normal 0 0 -1
    outer loop
      vertex 1.90317 2.31903 0
      vertex 0.813171 0.813171 0
      vertex 0.729538 0.888962 0
    endloop
  endfacet
  facet normal 0 -0 -1
    outer loop
      vertex 1.90317 2.31903 0
      vertex 2.12131 2.12131 0
      vertex 0.813171 0.813171 0
    endloop
  endfacet
  facet normal 0 0 -1
    outer loop
      vertex 0.813171 0.813171 0
      vertex 2.12131 2.12131 0
      vertex 2.23126 2 0
    endloop
  endfacet
  facet normal 0 0 -1
    outer loop
      vertex 0.888962 0.729538 0
      vertex 0.813171 0.813171 0
      vertex 2.23126 2 0
    endloop
  endfacet
  facet normal 0 0 -1
    outer loop
      vertex 0.956177 0.638901 0
      vertex 0.888962 0.729538 0
      vertex 2.23126 2 0
    endloop
  endfacet
  facet normal 0 0 -1
    outer loop
      vertex 1.01421 0.542099 0
      vertex 0.956177 0.638901 0
      vertex 2.23126 2 0
    endloop
  endfacet
  facet normal 0 0 -1
    outer loop
      vertex 1.10048 0.333817 0
      vertex 1.06245 0.440079 0
      vertex 2.23126 2 0
    endloop
  endfacet
  facet normal 0 0 -1
    outer loop
      vertex 1.06245 0.440079 0
      vertex 1.01421 0.542099 0
      vertex 2.23126 2 0
    endloop
  endfacet
  facet normal 0 0 -1
    outer loop
      vertex 1.1279 0.22435 0
      vertex 1.10048 0.333817 0
      vertex 2.23126 2 0
    endloop
  endfacet
  facet normal 0 0 -1
    outer loop
      vertex 1.14445 0.112717 0
      vertex 1.1279 0.22435 0
      vertex 2.23126 2 0
    endloop
  endfacet
  facet normal 0 0 -1
    outer loop
      vertex 1.14999 0 0
      vertex 1.14445 0.112717 0
      vertex 2.23126 2 0
    endloop
  endfacet
  facet normal 0 0 -1
    outer loop
      vertex 2.0345 -2.2 0
      vertex 1.14999 0 0
      vertex 2.23126 2 0
    endloop
  endfacet
  facet normal 0 0 -1
    outer loop
      vertex 2.0345 -2.2 0
      vertex 1.14445 -0.112717 0
      vertex 1.14999 0 0
    endloop
  endfacet
  facet normal 0 0 -1
    outer loop
      vertex 2.0345 -2.2 0
      vertex 1.1279 -0.22435 0
      vertex 1.14445 -0.112717 0
    endloop
  endfacet
  facet normal 0 0 -1
    outer loop
      vertex 1.06245 -0.440079 0
      vertex 1.10048 -0.333817 0
      vertex 2.0345 -2.2 0
    endloop
  endfacet
  facet normal 0 -0 -1
    outer loop
      vertex 1.01421 -0.542099 0
      vertex 2.0345 -2.2 0
      vertex 0.956177 -0.638901 0
    endloop
  endfacet
  facet normal 0 -0 -1
    outer loop
      vertex 0.956177 -0.638901 0
      vertex 2.0345 -2.2 0
      vertex 0.888962 -0.729538 0
    endloop
  endfacet
  facet normal 0 -0 -1
    outer loop
      vertex 0.888962 -0.729538 0
      vertex 2.0345 -2.2 0
      vertex 0.813171 -0.813171 0
    endloop
  endfacet
  facet normal -0 0 -1
    outer loop
      vertex 2.0345 -2.2 0
      vertex 1.90317 -2.31903 0
      vertex 0.729538 -0.888962 0
    endloop
  endfacet
  facet normal 0 0 -1
    outer loop
      vertex 0.729538 -0.888962 0
      vertex 1.90317 -2.31903 0
      vertex 1.6667 -2.4944 0
    endloop
  endfacet
  facet normal 0 -0 -1
    outer loop
      vertex 0.638901 -0.956177 0
      vertex 1.6667 -2.4944 0
      vertex 0.542099 -1.01421 0
    endloop
  endfacet
  facet normal 0 0 -1
    outer loop
      vertex 0.542099 -1.01421 0
      vertex 1.6667 -2.4944 0
      vertex 1.41418 -2.64575 0
    endloop
  endfacet
  facet normal 0 0 -1
    outer loop
      vertex 0.440079 -1.06245 0
      vertex 0.542099 -1.01421 0
      vertex 1.14804 -2.77164 0
    endloop
  endfacet
  facet normal 0 0 -1
    outer loop
      vertex 0.333817 -1.10048 0
      vertex 1.14804 -2.77164 0
      vertex 0.87085 -2.87082 0
    endloop
  endfacet
  facet normal 0 0 -1
    outer loop
      vertex 0.585266 -2.94235 0
      vertex 0.333817 -1.10048 0
      vertex 0.87085 -2.87082 0
    endloop
  endfacet
  facet normal 0 0 -1
    outer loop
      vertex 0.294037 -2.98555 0
      vertex 0.22435 -1.1279 0
      vertex 0.585266 -2.94235 0
    endloop
  endfacet
  facet normal 0 0 -1
    outer loop
      vertex 0.294037 -2.98555 0
      vertex 0.112717 -1.14445 0
      vertex 0.22435 -1.1279 0
    endloop
  endfacet
  facet normal 0 -0 1
    outer loop
      vertex 36 -4 2.4
      vertex 36 4 2.4
      vertex 12 4 2.4
    endloop
  endfacet
  facet normal 0 0 1
    outer loop
      vertex -1.14445 -0.112717 2.4
      vertex -2.98555 -0.294037 2.4
      vertex -1.1279 -0.22435 2.4
    endloop
  endfacet
  facet normal 0 0 1
    outer loop
      vertex 10 2 2.4
      vertex 10 -2.2 2.4
      vertex 12 -4 2.4
    endloop
  endfacet
  facet normal 0 0 1
    outer loop
      vertex -1.01421 0.542099 2.4
      vertex -2.77164 1.14804 2.4
      vertex -1.06245 0.440079 2.4
    endloop
  endfacet
  facet normal 0 0 1
    outer loop
      vertex -2.77164 1.14804 2.4
      vertex -2.87082 0.87085 2.4
      vertex -1.10048 0.333817 2.4
    endloop
  endfacet
  facet normal 0 0 1
    outer loop
      vertex -1.10048 0.333817 2.4
      vertex -2.94235 0.585266 2.4
      vertex -1.1279 0.22435 2.4
    endloop
  endfacet
  facet normal 0 0 1
    outer loop
      vertex -1.1279 0.22435 2.4
      vertex -2.98555 0.294037 2.4
      vertex -1.14445 0.112717 2.4
    endloop
  endfacet
  facet normal 0 0 1
    outer loop
      vertex -2.98555 0.294037 2.4
      vertex -3 0 2.4
      vertex -1.14999 0 2.4
    endloop
  endfacet
  facet normal 0 0 1
    outer loop
      vertex -1.14999 0 2.4
      vertex -2.98555 -0.294037 2.4
      vertex -1.14445 -0.112717 2.4
    endloop
  endfacet
  facet normal 0 0 1
    outer loop
      vertex -1.1279 -0.22435 2.4
      vertex -2.94235 -0.585266 2.4
      vertex -1.10048 -0.333817 2.4
    endloop
  endfacet
  facet normal 0 0 1
    outer loop
      vertex -1.10048 -0.333817 2.4
      vertex -2.87082 -0.87085 2.4
      vertex -2.77164 -1.14804 2.4
    endloop
  endfacet
  facet normal 0 0 1
    outer loop
      vertex -1.06245 -0.440079 2.4
      vertex -2.77164 -1.14804 2.4
      vertex -1.01421 -0.542099 2.4
    endloop
  endfacet
  facet normal 0 0 1
    outer loop
      vertex -1.01421 -0.542099 2.4
      vertex -2.64575 -1.41418 2.4
      vertex -2.4944 -1.6667 2.4
    endloop
  endfacet
  facet normal 0 0 1
    outer loop
      vertex 0.112717 -1.14445 2.4
      vertex 0 -1.14999 2.4
      vertex 0.294037 -2.98555 2.4
    endloop
  endfacet
  facet normal 0 0 1
    outer loop
      vertex -0.542099 -1.01421 2.4
      vertex -0.638901 -0.956177 2.4
      vertex -1.6667 -2.4944 2.4
    endloop
  endfacet
  facet normal 0 0 1
    outer loop
      vertex -0.542099 -1.01421 2.4
      vertex -1.6667 -2.4944 2.4
      vertex -1.41418 -2.64575 2.4
    endloop
  endfacet
  facet normal 0 0 1
    outer loop
      vertex -0.542099 -1.01421 2.4
      vertex -1.41418 -2.64575 2.4
      vertex -1.14804 -2.77164 2.4
    endloop
  endfacet
  facet normal 0 0 1
    outer loop
      vertex -0.542099 -1.01421 2.4
      vertex -1.14804 -2.77164 2.4
      vertex -0.440079 -1.06245 2.4
    endloop
  endfacet
  facet normal 0 0 1
    outer loop
      vertex -1.14804 -2.77164 2.4
      vertex -0.333817 -1.10048 2.4
      vertex -0.440079 -1.06245 2.4
    endloop
  endfacet
  facet normal 0 -0 1
    outer loop
      vertex -0.87085 -2.87082 2.4
      vertex -0.333817 -1.10048 2.4
      vertex -1.14804 -2.77164 2.4
    endloop
  endfacet
  facet normal 0 -0 1
    outer loop
      vertex -0.585266 -2.94235 2.4
      vertex -0.333817 -1.10048 2.4
      vertex -0.87085 -2.87082 2.4
    endloop
  endfacet
  facet normal 0 0 1
    outer loop
      vertex -0.22435 -1.1279 2.4
      vertex -0.333817 -1.10048 2.4
      vertex -0.585266 -2.94235 2.4
    endloop
  endfacet
  facet normal 0 0 1
    outer loop
      vertex -0.22435 -1.1279 2.4
      vertex -0.585266 -2.94235 2.4
      vertex -0.294037 -2.98555 2.4
    endloop
  endfacet
  facet normal 0 0 1
    outer loop
      vertex -0.22435 -1.1279 2.4
      vertex -0.294037 -2.98555 2.4
      vertex -0.112717 -1.14445 2.4
    endloop
  endfacet
  facet normal 0 0 1
    outer loop
      vertex -0.294037 -2.98555 2.4
      vertex 0 -1.14999 2.4
      vertex -0.112717 -1.14445 2.4
    endloop
  endfacet
  facet normal 0 -0 1
    outer loop
      vertex 0 -3 2.4
      vertex 0 -1.14999 2.4
      vertex -0.294037 -2.98555 2.4
    endloop
  endfacet
  facet normal 0 0 1
    outer loop
      vertex 0.294037 -2.98555 2.4
      vertex 0 -1.14999 2.4
      vertex 0 -3 2.4
    endloop
  endfacet
  facet normal 0 0 1
    outer loop
      vertex 0.585266 -2.94235 2.4
      vertex 0.333817 -1.10048 2.4
      vertex 0.22435 -1.1279 2.4
    endloop
  endfacet
  facet normal -0 0 1
    outer loop
      vertex 10 2 2.4
      vertex 12 -4 2.4
      vertex 12 4 2.4
    endloop
  endfacet
  facet normal 0 0 1
    outer loop
      vertex 12 -4 2.4
      vertex 36 -4 2.4
      vertex 12 4 2.4
    endloop
  endfacet
  facet normal -0 0 1
    outer loop
      vertex 0.333817 -1.10048 2.4
      vertex 1.14804 -2.77164 2.4
      vertex 0.440079 -1.06245 2.4
    endloop
  endfacet
  facet normal 0 -0 1
    outer loop
      vertex 1.14804 -2.77164 2.4
      vertex 1.41418 -2.64575 2.4
      vertex 0.542099 -1.01421 2.4
    endloop
  endfacet
  facet normal -0 0 1
    outer loop
      vertex 0.638901 -0.956177 2.4
      vertex 1.6667 -2.4944 2.4
      vertex 0.729538 -0.888962 2.4
    endloop
  endfacet
  facet normal 0 0 1
    outer loop
      vertex 0.813171 -0.813171 2.4
      vertex 0.729538 -0.888962 2.4
      vertex 2.0345 -2.2 2.4
    endloop
  endfacet
  facet normal -0 0 1
    outer loop
      vertex 1.01421 -0.542099 2.4
      vertex 2.0345 -2.2 2.4
      vertex 1.06245 -0.440079 2.4
    endloop
  endfacet
  facet normal 0 0 1
    outer loop
      vertex 2.0345 -2.2 2.4
      vertex 1.1279 -0.22435 2.4
      vertex 1.10048 -0.333817 2.4
    endloop
  endfacet
  facet normal 0 0 1
    outer loop
      vertex 2.23126 2 2.4
      vertex 2.0345 -2.2 2.4
      vertex 10 -2.2 2.4
    endloop
  endfacet
  facet normal 0 0 1
    outer loop
      vertex -0.956177 -0.638901 2.4
      vertex -2.4944 -1.6667 2.4
      vertex -0.888962 -0.729538 2.4
    endloop
  endfacet
  facet normal -0 0 1
    outer loop
      vertex 2.23126 2 2.4
      vertex 10 -2.2 2.4
      vertex 10 2 2.4
    endloop
  endfacet
  facet normal 0 -0 1
    outer loop
      vertex 0.333817 1.10048 2.4
      vertex 0.585266 2.94235 2.4
      vertex 0.22435 1.1279 2.4
    endloop
  endfacet
  facet normal 0 -0 1
    outer loop
      vertex -1.6667 -2.4944 2.4
      vertex -0.729538 -0.888962 2.4
      vertex -1.90317 -2.31903 2.4
    endloop
  endfacet
  facet normal 0 0 1
    outer loop
      vertex -1.6667 -2.4944 2.4
      vertex -0.638901 -0.956177 2.4
      vertex -0.729538 -0.888962 2.4
    endloop
  endfacet
  facet normal 0 -0 1
    outer loop
      vertex -1.90317 -2.31903 2.4
      vertex -0.813171 -0.813171 2.4
      vertex -2.12131 -2.12131 2.4
    endloop
  endfacet
  facet normal 0 0 1
    outer loop
      vertex -1.90317 -2.31903 2.4
      vertex -0.729538 -0.888962 2.4
      vertex -0.813171 -0.813171 2.4
    endloop
  endfacet
  facet normal 0 0 1
    outer loop
      vertex -0.813171 -0.813171 2.4
      vertex -0.888962 -0.729538 2.4
      vertex -2.31903 -1.90317 2.4
    endloop
  endfacet
  facet normal 0 -0 1
    outer loop
      vertex -2.12131 -2.12131 2.4
      vertex -0.813171 -0.813171 2.4
      vertex -2.31903 -1.90317 2.4
    endloop
  endfacet
  facet normal 0 0 1
    outer loop
      vertex -0.888962 -0.729538 2.4
      vertex -2.4944 -1.6667 2.4
      vertex -2.31903 -1.90317 2.4
    endloop
  endfacet
  facet normal 0 0 1
    outer loop
      vertex -0.956177 -0.638901 2.4
      vertex -1.01421 -0.542099 2.4
      vertex -2.4944 -1.6667 2.4
    endloop
  endfacet
  facet normal 0 0 1
    outer loop
      vertex -1.01421 -0.542099 2.4
      vertex -2.77164 -1.14804 2.4
      vertex -2.64575 -1.41418 2.4
    endloop
  endfacet
  facet normal 0 0 1
    outer loop
      vertex -1.06245 -0.440079 2.4
      vertex -1.10048 -0.333817 2.4
      vertex -2.77164 -1.14804 2.4
    endloop
  endfacet
  facet normal 0 0 1
    outer loop
      vertex -1.10048 -0.333817 2.4
      vertex -2.94235 -0.585266 2.4
      vertex -2.87082 -0.87085 2.4
    endloop
  endfacet
  facet normal 0 0 1
    outer loop
      vertex -1.1279 -0.22435 2.4
      vertex -2.98555 -0.294037 2.4
      vertex -2.94235 -0.585266 2.4
    endloop
  endfacet
  facet normal -0 0 1
    outer loop
      vertex -3 0 2.4
      vertex -2.98555 -0.294037 2.4
      vertex -1.14999 0 2.4
    endloop
  endfacet
  facet normal 0 0 1
    outer loop
      vertex -2.98555 0.294037 2.4
      vertex -1.14999 0 2.4
      vertex -1.14445 0.112717 2.4
    endloop
  endfacet
  facet normal 0 0 1
    outer loop
      vertex -2.94235 0.585266 2.4
      vertex -2.98555 0.294037 2.4
      vertex -1.1279 0.22435 2.4
    endloop
  endfacet
  facet normal 0 0 1
    outer loop
      vertex -2.87082 0.87085 2.4
      vertex -2.94235 0.585266 2.4
      vertex -1.10048 0.333817 2.4
    endloop
  endfacet
  facet normal 0 0 1
    outer loop
      vertex -2.77164 1.14804 2.4
      vertex -1.10048 0.333817 2.4
      vertex -1.06245 0.440079 2.4
    endloop
  endfacet
  facet normal 0 0 1
    outer loop
      vertex -2.64575 1.41418 2.4
      vertex -2.77164 1.14804 2.4
      vertex -1.01421 0.542099 2.4
    endloop
  endfacet
  facet normal 0 -0 1
    outer loop
      vertex -1.01421 0.542099 2.4
      vertex -0.956177 0.638901 2.4
      vertex -2.4944 1.6667 2.4
    endloop
  endfacet
  facet normal -0 0 1
    outer loop
      vertex -2.64575 1.41418 2.4
      vertex -1.01421 0.542099 2.4
      vertex -2.4944 1.6667 2.4
    endloop
  endfacet
  facet normal -0 0 1
    outer loop
      vertex -2.4944 1.6667 2.4
      vertex -0.888962 0.729538 2.4
      vertex -2.31903 1.90317 2.4
    endloop
  endfacet
  facet normal 0 0 1
    outer loop
      vertex -2.4944 1.6667 2.4
      vertex -0.956177 0.638901 2.4
      vertex -0.888962 0.729538 2.4
    endloop
  endfacet
  facet normal -0 0 1
    outer loop
      vertex -2.31903 1.90317 2.4
      vertex -0.813171 0.813171 2.4
      vertex -2.12131 2.12131 2.4
    endloop
  endfacet
  facet normal 0 0 1
    outer loop
      vertex -2.31903 1.90317 2.4
      vertex -0.888962 0.729538 2.4
      vertex -0.813171 0.813171 2.4
    endloop
  endfacet
  facet normal 0 -0 1
    outer loop
      vertex -0.813171 0.813171 2.4
      vertex -0.729538 0.888962 2.4
      vertex -1.90317 2.31903 2.4
    endloop
  endfacet
  facet normal -0 0 1
    outer loop
      vertex -2.12131 2.12131 2.4
      vertex -0.813171 0.813171 2.4
      vertex -1.90317 2.31903 2.4
    endloop
  endfacet
  facet normal 0 -0 1
    outer loop
      vertex -0.729538 0.888962 2.4
      vertex -0.638901 0.956177 2.4
      vertex -1.6667 2.4944 2.4
    endloop
  endfacet
  facet normal -0 0 1
    outer loop
      vertex -1.90317 2.31903 2.4
      vertex -0.729538 0.888962 2.4
      vertex -1.6667 2.4944 2.4
    endloop
  endfacet
  facet normal -0 0 1
    outer loop
      vertex -1.6667 2.4944 2.4
      vertex -0.542099 1.01421 2.4
      vertex -1.41418 2.64575 2.4
    endloop
  endfacet
  facet normal 0 0 1
    outer loop
      vertex -1.6667 2.4944 2.4
      vertex -0.638901 0.956177 2.4
      vertex -0.542099 1.01421 2.4
    endloop
  endfacet
  facet normal 0 -0 1
    outer loop
      vertex -0.542099 1.01421 2.4
      vertex -0.440079 1.06245 2.4
      vertex -1.14804 2.77164 2.4
    endloop
  endfacet
  facet normal -0 0 1
    outer loop
      vertex -1.41418 2.64575 2.4
      vertex -0.542099 1.01421 2.4
      vertex -1.14804 2.77164 2.4
    endloop
  endfacet
  facet normal -0 0 1
    outer loop
      vertex -1.14804 2.77164 2.4
      vertex -0.333817 1.10048 2.4
      vertex -0.87085 2.87082 2.4
    endloop
  endfacet
  facet normal 0 0 1
    outer loop
      vertex -1.14804 2.77164 2.4
      vertex -0.440079 1.06245 2.4
      vertex -0.333817 1.10048 2.4
    endloop
  endfacet
  facet normal 0 -0 1
    outer loop
      vertex -0.333817 1.10048 2.4
      vertex -0.22435 1.1279 2.4
      vertex -0.585266 2.94235 2.4
    endloop
  endfacet
  facet normal -0 0 1
    outer loop
      vertex -0.87085 2.87082 2.4
      vertex -0.333817 1.10048 2.4
      vertex -0.585266 2.94235 2.4
    endloop
  endfacet
  facet normal 0 -0 1
    outer loop
      vertex -0.22435 1.1279 2.4
      vertex -0.112717 1.14445 2.4
      vertex -0.294037 2.98555 2.4
    endloop
  endfacet
  facet normal -0 0 1
    outer loop
      vertex -0.585266 2.94235 2.4
      vertex -0.22435 1.1279 2.4
      vertex -0.294037 2.98555 2.4
    endloop
  endfacet
  facet normal -0 0 1
    outer loop
      vertex -0.294037 2.98555 2.4
      vertex 0 1.14999 2.4
      vertex 0 3 2.4
    endloop
  endfacet
  facet normal 0 0 1
    outer loop
      vertex -0.294037 2.98555 2.4
      vertex -0.112717 1.14445 2.4
      vertex 0 1.14999 2.4
    endloop
  endfacet
  facet normal -0 0 1
    outer loop
      vertex 0 1.14999 2.4
      vertex 0.112717 1.14445 2.4
      vertex 0.294037 2.98555 2.4
    endloop
  endfacet
  facet normal 0 0 1
    outer loop
      vertex 0 3 2.4
      vertex 0 1.14999 2.4
      vertex 0.294037 2.98555 2.4
    endloop
  endfacet
  facet normal 0 0 1
    outer loop
      vertex 0.294037 2.98555 2.4
      vertex 0.22435 1.1279 2.4
      vertex 0.585266 2.94235 2.4
    endloop
  endfacet
  facet normal 0 0 1
    outer loop
      vertex 0.294037 2.98555 2.4
      vertex 0.112717 1.14445 2.4
      vertex 0.22435 1.1279 2.4
    endloop
  endfacet
  facet normal 0 0 1
    outer loop
      vertex 0.87085 2.87082 2.4
      vertex 0.585266 2.94235 2.4
      vertex 0.333817 1.10048 2.4
    endloop
  endfacet
  facet normal 0 0 1
    outer loop
      vertex 0.333817 1.10048 2.4
      vertex 1.14804 2.77164 2.4
      vertex 0.87085 2.87082 2.4
    endloop
  endfacet
  facet normal 0 -0 1
    outer loop
      vertex 0.440079 1.06245 2.4
      vertex 1.14804 2.77164 2.4
      vertex 0.333817 1.10048 2.4
    endloop
  endfacet
  facet normal 0 -0 1
    outer loop
      vertex 0.542099 1.01421 2.4
      vertex 1.14804 2.77164 2.4
      vertex 0.440079 1.06245 2.4
    endloop
  endfacet
  facet normal 0 0 1
    outer loop
      vertex 1.41418 2.64575 2.4
      vertex 1.14804 2.77164 2.4
      vertex 0.542099 1.01421 2.4
    endloop
  endfacet
  facet normal 0 0 1
    outer loop
      vertex 1.6667 2.4944 2.4
      vertex 1.41418 2.64575 2.4
      vertex 0.542099 1.01421 2.4
    endloop
  endfacet
  facet normal 0 0 1
    outer loop
      vertex 1.6667 2.4944 2.4
      vertex 0.542099 1.01421 2.4
      vertex 0.638901 0.956177 2.4
    endloop
  endfacet
  facet normal 0 0 1
    outer loop
      vertex 1.6667 2.4944 2.4
      vertex 0.638901 0.956177 2.4
      vertex 0.729538 0.888962 2.4
    endloop
  endfacet
  facet normal 0 0 1
    outer loop
      vertex 1.6667 2.4944 2.4
      vertex 0.729538 0.888962 2.4
      vertex 1.90317 2.31903 2.4
    endloop
  endfacet
  facet normal -0 0 1
    outer loop
      vertex 0.729538 0.888962 2.4
      vertex 0.813171 0.813171 2.4
      vertex 1.90317 2.31903 2.4
    endloop
  endfacet
  facet normal 0 0 1
    outer loop
      vertex 0.813171 0.813171 2.4
      vertex 2.12131 2.12131 2.4
      vertex 1.90317 2.31903 2.4
    endloop
  endfacet
  facet normal 0 0 1
    outer loop
      vertex 2.23126 2 2.4
      vertex 2.12131 2.12131 2.4
      vertex 0.813171 0.813171 2.4
    endloop
  endfacet
  facet normal 0 0 1
    outer loop
      vertex 2.23126 2 2.4
      vertex 0.813171 0.813171 2.4
      vertex 0.888962 0.729538 2.4
    endloop
  endfacet
  facet normal 0 0 1
    outer loop
      vertex 2.23126 2 2.4
      vertex 0.888962 0.729538 2.4
      vertex 0.956177 0.638901 2.4
    endloop
  endfacet
  facet normal 0 0 1
    outer loop
      vertex 2.23126 2 2.4
      vertex 0.956177 0.638901 2.4
      vertex 1.01421 0.542099 2.4
    endloop
  endfacet
  facet normal 0 0 1
    outer loop
      vertex 2.23126 2 2.4
      vertex 1.06245 0.440079 2.4
      vertex 1.10048 0.333817 2.4
    endloop
  endfacet
  facet normal 0 0 1
    outer loop
      vertex 2.23126 2 2.4
      vertex 1.01421 0.542099 2.4
      vertex 1.06245 0.440079 2.4
    endloop
  endfacet
  facet normal 0 0 1
    outer loop
      vertex 2.23126 2 2.4
      vertex 1.10048 0.333817 2.4
      vertex 1.1279 0.22435 2.4
    endloop
  endfacet
  facet normal 0 0 1
    outer loop
      vertex 2.23126 2 2.4
      vertex 1.1279 0.22435 2.4
      vertex 1.14445 0.112717 2.4
    endloop
  endfacet
  facet normal 0 0 1
    outer loop
      vertex 2.23126 2 2.4
      vertex 1.14445 0.112717 2.4
      vertex 1.14999 0 2.4
    endloop
  endfacet
  facet normal 0 0 1
    outer loop
      vertex 2.23126 2 2.4
      vertex 1.14999 0 2.4
      vertex 2.0345 -2.2 2.4
    endloop
  endfacet
  facet normal 0 0 1
    outer loop
      vertex 1.14999 0 2.4
      vertex 1.14445 -0.112717 2.4
      vertex 2.0345 -2.2 2.4
    endloop
  endfacet
  facet normal 0 0 1
    outer loop
      vertex 1.14445 -0.112717 2.4
      vertex 1.1279 -0.22435 2.4
      vertex 2.0345 -2.2 2.4
    endloop
  endfacet
  facet normal 0 0 1
    outer loop
      vertex 2.0345 -2.2 2.4
      vertex 1.10048 -0.333817 2.4
      vertex 1.06245 -0.440079 2.4
    endloop
  endfacet
  facet normal -0 0 1
    outer loop
      vertex 0.956177 -0.638901 2.4
      vertex 2.0345 -2.2 2.4
      vertex 1.01421 -0.542099 2.4
    endloop
  endfacet
  facet normal -0 0 1
    outer loop
      vertex 0.888962 -0.729538 2.4
      vertex 2.0345 -2.2 2.4
      vertex 0.956177 -0.638901 2.4
    endloop
  endfacet
  facet normal -0 0 1
    outer loop
      vertex 0.813171 -0.813171 2.4
      vertex 2.0345 -2.2 2.4
      vertex 0.888962 -0.729538 2.4
    endloop
  endfacet
  facet normal 0 0 1
    outer loop
      vertex 0.729538 -0.888962 2.4
      vertex 1.90317 -2.31903 2.4
      vertex 2.0345 -2.2 2.4
    endloop
  endfacet
  facet normal 0 -0 1
    outer loop
      vertex 1.6667 -2.4944 2.4
      vertex 1.90317 -2.31903 2.4
      vertex 0.729538 -0.888962 2.4
    endloop
  endfacet
  facet normal -0 0 1
    outer loop
      vertex 0.542099 -1.01421 2.4
      vertex 1.6667 -2.4944 2.4
      vertex 0.638901 -0.956177 2.4
    endloop
  endfacet
  facet normal 0 -0 1
    outer loop
      vertex 1.41418 -2.64575 2.4
      vertex 1.6667 -2.4944 2.4
      vertex 0.542099 -1.01421 2.4
    endloop
  endfacet
  facet normal 0 0 1
    outer loop
      vertex 1.14804 -2.77164 2.4
      vertex 0.542099 -1.01421 2.4
      vertex 0.440079 -1.06245 2.4
    endloop
  endfacet
  facet normal 0 -0 1
    outer loop
      vertex 0.87085 -2.87082 2.4
      vertex 1.14804 -2.77164 2.4
      vertex 0.333817 -1.10048 2.4
    endloop
  endfacet
  facet normal 0 0 1
    outer loop
      vertex 0.87085 -2.87082 2.4
      vertex 0.333817 -1.10048 2.4
      vertex 0.585266 -2.94235 2.4
    endloop
  endfacet
  facet normal 0 0 1
    outer loop
      vertex 0.585266 -2.94235 2.4
      vertex 0.22435 -1.1279 2.4
      vertex 0.294037 -2.98555 2.4
    endloop
  endfacet
  facet normal 0 0 1
    outer loop
      vertex 0.22435 -1.1279 2.4
      vertex 0.112717 -1.14445 2.4
      vertex 0.294037 -2.98555 2.4
    endloop
  endfacet
  facet normal 0 1 0
    outer loop
      vertex 12 4 0
      vertex 36 4 2.4
      vertex 36 4 0
    endloop
  endfacet
  facet normal 0 1 0
    outer loop
      vertex 12 4 0
      vertex 12 4 2.4
      vertex 36 4 2.4
    endloop
  endfacet
  facet normal -0.707107 0.707107 0
    outer loop
      vertex 10 2 0
      vertex 12 4 2.4
      vertex 12 4 0
    endloop
  endfacet
  facet normal -0.707107 0.707107 0
    outer loop
      vertex 10 2 0
      vertex 10 2 2.4
      vertex 12 4 2.4
    endloop
  endfacet
  facet normal 0 1 0
    outer loop
      vertex 2.23126 2 0
      vertex 10 2 2.4
      vertex 10 2 0
    endloop
  endfacet
  facet normal 0 1 0
    outer loop
      vertex 2.23126 2 0
      vertex 2.23126 2 2.4
      vertex 10 2 2.4
    endloop
  endfacet
  facet normal 0.740948 0.671562 0
    outer loop
      vertex 2.12131 2.12131 0
      vertex 2.23126 2 2.4
      vertex 2.23126 2 0
    endloop
  endfacet
  facet normal 0.740948 0.671562 -0
    outer loop
      vertex 2.12131 2.12131 0
      vertex 2.12131 2.12131 2.4
      vertex 2.23126 2 2.4
    endloop
  endfacet
  facet normal 0.671577 0.740935 0
    outer loop
      vertex 1.90317 2.31903 0
      vertex 2.12131 2.12131 2.4
      vertex 2.12131 2.12131 0
    endloop
  endfacet
  facet normal 0.671577 0.740935 -0
    outer loop
      vertex 1.90317 2.31903 0
      vertex 1.90317 2.31903 2.4
      vertex 2.12131 2.12131 2.4
    endloop
  endfacet
  facet normal 0.595682 0.803221 0
    outer loop
      vertex 1.6667 2.4944 0
      vertex 1.90317 2.31903 2.4
      vertex 1.90317 2.31903 0
    endloop
  endfacet
  facet normal 0.595682 0.803221 -0
    outer loop
      vertex 1.6667 2.4944 0
      vertex 1.6667 2.4944 2.4
      vertex 1.90317 2.31903 2.4
    endloop
  endfacet
  facet normal 0.514091 0.857736 0
    outer loop
      vertex 1.41418 2.64575 0
      vertex 1.6667 2.4944 2.4
      vertex 1.6667 2.4944 0
    endloop
  endfacet
  facet normal 0.514091 0.857736 -0
    outer loop
      vertex 1.41418 2.64575 0
      vertex 1.41418 2.64575 2.4
      vertex 1.6667 2.4944 2.4
    endloop
  endfacet
  facet normal 0.427597 0.903969 0
    outer loop
      vertex 1.14804 2.77164 0
      vertex 1.41418 2.64575 2.4
      vertex 1.41418 2.64575 0
    endloop
  endfacet
  facet normal 0.427597 0.903969 -0
    outer loop
      vertex 1.14804 2.77164 0
      vertex 1.14804 2.77164 2.4
      vertex 1.41418 2.64575 2.4
    endloop
  endfacet
  facet normal 0.336889 0.941544 0
    outer loop
      vertex 0.87085 2.87082 0
      vertex 1.14804 2.77164 2.4
      vertex 1.14804 2.77164 0
    endloop
  endfacet
  facet normal 0.336889 0.941544 -0
    outer loop
      vertex 0.87085 2.87082 0
      vertex 0.87085 2.87082 2.4
      vertex 1.14804 2.77164 2.4
    endloop
  endfacet
  facet normal 0.242964 0.970035 0
    outer loop
      vertex 0.585266 2.94235 0
      vertex 0.87085 2.87082 2.4
      vertex 0.87085 2.87082 0
    endloop
  endfacet
  facet normal 0.242964 0.970035 -0
    outer loop
      vertex 0.585266 2.94235 0
      vertex 0.585266 2.94235 2.4
      vertex 0.87085 2.87082 2.4
    endloop
  endfacet
  facet normal 0.146731 0.989176 0
    outer loop
      vertex 0.294037 2.98555 0
      vertex 0.585266 2.94235 2.4
      vertex 0.585266 2.94235 0
    endloop
  endfacet
  facet normal 0.146731 0.989176 -0
    outer loop
      vertex 0.294037 2.98555 0
      vertex 0.294037 2.98555 2.4
      vertex 0.585266 2.94235 2.4
    endloop
  endfacet
  facet normal 0.0490842 0.998795 0
    outer loop
      vertex 0 3 0
      vertex 0.294037 2.98555 2.4
      vertex 0.294037 2.98555 0
    endloop
  endfacet
  facet normal 0.0490842 0.998795 -0
    outer loop
      vertex 0 3 0
      vertex 0 3 2.4
      vertex 0.294037 2.98555 2.4
    endloop
  endfacet
  facet normal -0.0490842 0.998795 0
    outer loop
      vertex -0.294037 2.98555 0
      vertex 0 3 2.4
      vertex 0 3 0
    endloop
  endfacet
  facet normal -0.0490842 0.998795 0
    outer loop
      vertex -0.294037 2.98555 0
      vertex -0.294037 2.98555 2.4
      vertex 0 3 2.4
    endloop
  endfacet
  facet normal -0.146731 0.989176 0
    outer loop
      vertex -0.585266 2.94235 0
      vertex -0.294037 2.98555 2.4
      vertex -0.294037 2.98555 0
    endloop
  endfacet
  facet normal -0.146731 0.989176 0
    outer loop
      vertex -0.585266 2.94235 0
      vertex -0.585266 2.94235 2.4
      vertex -0.294037 2.98555 2.4
    endloop
  endfacet
  facet normal -0.242964 0.970035 0
    outer loop
      vertex -0.87085 2.87082 0
      vertex -0.585266 2.94235 2.4
      vertex -0.585266 2.94235 0
    endloop
  endfacet
  facet normal -0.242964 0.970035 0
    outer loop
      vertex -0.87085 2.87082 0
      vertex -0.87085 2.87082 2.4
      vertex -0.585266 2.94235 2.4
    endloop
  endfacet
  facet normal -0.336889 0.941544 0
    outer loop
      vertex -1.14804 2.77164 0
      vertex -0.87085 2.87082 2.4
      vertex -0.87085 2.87082 0
    endloop
  endfacet
  facet normal -0.336889 0.941544 0
    outer loop
      vertex -1.14804 2.77164 0
      vertex -1.14804 2.77164 2.4
      vertex -0.87085 2.87082 2.4
    endloop
  endfacet
  facet normal -0.427597 0.903969 0
    outer loop
      vertex -1.41418 2.64575 0
      vertex -1.14804 2.77164 2.4
      vertex -1.14804 2.77164 0
    endloop
  endfacet
  facet normal -0.427597 0.903969 0
    outer loop
      vertex -1.41418 2.64575 0
      vertex -1.41418 2.64575 2.4
      vertex -1.14804 2.77164 2.4
    endloop
  endfacet
  facet normal -0.514091 0.857736 0
    outer loop
      vertex -1.6667 2.4944 0
      vertex -1.41418 2.64575 2.4
      vertex -1.41418 2.64575 0
    endloop
  endfacet
  facet normal -0.514091 0.857736 0
    outer loop
      vertex -1.6667 2.4944 0
      vertex -1.6667 2.4944 2.4
      vertex -1.41418 2.64575 2.4
    endloop
  endfacet
  facet normal -0.595682 0.803221 0
    outer loop
      vertex -1.90317 2.31903 0
      vertex -1.6667 2.4944 2.4
      vertex -1.6667 2.4944 0
    endloop
  endfacet
  facet normal -0.595682 0.803221 0
    outer loop
      vertex -1.90317 2.31903 0
      vertex -1.90317 2.31903 2.4
      vertex -1.6667 2.4944 2.4
    endloop
  endfacet
  facet normal -0.671577 0.740935 0
    outer loop
      vertex -2.12131 2.12131 0
      vertex -1.90317 2.31903 2.4
      vertex -1.90317 2.31903 0
    endloop
  endfacet
  facet normal -0.671577 0.740935 0
    outer loop
      vertex -2.12131 2.12131 0
      vertex -2.12131 2.12131 2.4
      vertex -1.90317 2.31903 2.4
    endloop
  endfacet
  facet normal -0.740935 0.671577 0
    outer loop
      vertex -2.31903 1.90317 0
      vertex -2.12131 2.12131 2.4
      vertex -2.12131 2.12131 0
    endloop
  endfacet
  facet normal -0.740935 0.671577 0
    outer loop
      vertex -2.31903 1.90317 0
      vertex -2.31903 1.90317 2.4
      vertex -2.12131 2.12131 2.4
    endloop
  endfacet
  facet normal -0.803221 0.595682 0
    outer loop
      vertex -2.4944 1.6667 0
      vertex -2.31903 1.90317 2.4
      vertex -2.31903 1.90317 0
    endloop
  endfacet
  facet normal -0.803221 0.595682 0
    outer loop
      vertex -2.4944 1.6667 0
      vertex -2.4944 1.6667 2.4
      vertex -2.31903 1.90317 2.4
    endloop
  endfacet
  facet normal -0.857736 0.514091 0
    outer loop
      vertex -2.64575 1.41418 0
      vertex -2.4944 1.6667 2.4
      vertex -2.4944 1.6667 0
    endloop
  endfacet
  facet normal -0.857736 0.514091 0
    outer loop
      vertex -2.64575 1.41418 0
      vertex -2.64575 1.41418 2.4
      vertex -2.4944 1.6667 2.4
    endloop
  endfacet
  facet normal -0.903969 0.427597 0
    outer loop
      vertex -2.77164 1.14804 0
      vertex -2.64575 1.41418 2.4
      vertex -2.64575 1.41418 0
    endloop
  endfacet
  facet normal -0.903969 0.427597 0
    outer loop
      vertex -2.77164 1.14804 0
      vertex -2.77164 1.14804 2.4
      vertex -2.64575 1.41418 2.4
    endloop
  endfacet
  facet normal -0.941544 0.336889 0
    outer loop
      vertex -2.87082 0.87085 0
      vertex -2.77164 1.14804 2.4
      vertex -2.77164 1.14804 0
    endloop
  endfacet
  facet normal -0.941544 0.336889 0
    outer loop
      vertex -2.87082 0.87085 0
      vertex -2.87082 0.87085 2.4
      vertex -2.77164 1.14804 2.4
    endloop
  endfacet
  facet normal -0.970035 0.242964 0
    outer loop
      vertex -2.94235 0.585266 0
      vertex -2.87082 0.87085 2.4
      vertex -2.87082 0.87085 0
    endloop
  endfacet
  facet normal -0.970035 0.242964 0
    outer loop
      vertex -2.94235 0.585266 0
      vertex -2.94235 0.585266 2.4
      vertex -2.87082 0.87085 2.4
    endloop
  endfacet
  facet normal -0.989176 0.146731 0
    outer loop
      vertex -2.98555 0.294037 0
      vertex -2.94235 0.585266 2.4
      vertex -2.94235 0.585266 0
    endloop
  endfacet
  facet normal -0.989176 0.146731 0
    outer loop
      vertex -2.98555 0.294037 0
      vertex -2.98555 0.294037 2.4
      vertex -2.94235 0.585266 2.4
    endloop
  endfacet
  facet normal -0.998795 0.0490842 0
    outer loop
      vertex -3 0 0
      vertex -2.98555 0.294037 2.4
      vertex -2.98555 0.294037 0
    endloop
  endfacet
  facet normal -0.998795 0.0490842 0
    outer loop
      vertex -3 0 0
      vertex -3 0 2.4
      vertex -2.98555 0.294037 2.4
    endloop
  endfacet
  facet normal -0.998795 -0.0490842 0
    outer loop
      vertex -2.98555 -0.294037 0
      vertex -3 0 2.4
      vertex -3 0 0
    endloop
  endfacet
  facet normal -0.998795 -0.0490842 0
    outer loop
      vertex -2.98555 -0.294037 0
      vertex -2.98555 -0.294037 2.4
      vertex -3 0 2.4
    endloop
  endfacet
  facet normal -0.989176 -0.146731 0
    outer loop
      vertex -2.94235 -0.585266 0
      vertex -2.98555 -0.294037 2.4
      vertex -2.98555 -0.294037 0
    endloop
  endfacet
  facet normal -0.989176 -0.146731 0
    outer loop
      vertex -2.94235 -0.585266 0
      vertex -2.94235 -0.585266 2.4
      vertex -2.98555 -0.294037 2.4
    endloop
  endfacet
  facet normal -0.970035 -0.242964 0
    outer loop
      vertex -2.87082 -0.87085 0
      vertex -2.94235 -0.585266 2.4
      vertex -2.94235 -0.585266 0
    endloop
  endfacet
  facet normal -0.970035 -0.242964 0
    outer loop
      vertex -2.87082 -0.87085 0
      vertex -2.87082 -0.87085 2.4
      vertex -2.94235 -0.585266 2.4
    endloop
  endfacet
  facet normal -0.941544 -0.336889 0
    outer loop
      vertex -2.77164 -1.14804 0
      vertex -2.87082 -0.87085 2.4
      vertex -2.87082 -0.87085 0
    endloop
  endfacet
  facet normal -0.941544 -0.336889 0
    outer loop
      vertex -2.77164 -1.14804 0
      vertex -2.77164 -1.14804 2.4
      vertex -2.87082 -0.87085 2.4
    endloop
  endfacet
  facet normal -0.903969 -0.427597 0
    outer loop
      vertex -2.64575 -1.41418 0
      vertex -2.77164 -1.14804 2.4
      vertex -2.77164 -1.14804 0
    endloop
  endfacet
  facet normal -0.903969 -0.427597 0
    outer loop
      vertex -2.64575 -1.41418 0
      vertex -2.64575 -1.41418 2.4
      vertex -2.77164 -1.14804 2.4
    endloop
  endfacet
  facet normal -0.857736 -0.514091 0
    outer loop
      vertex -2.4944 -1.6667 0
      vertex -2.64575 -1.41418 2.4
      vertex -2.64575 -1.41418 0
    endloop
  endfacet
  facet normal -0.857736 -0.514091 0
    outer loop
      vertex -2.4944 -1.6667 0
      vertex -2.4944 -1.6667 2.4
      vertex -2.64575 -1.41418 2.4
    endloop
  endfacet
  facet normal -0.803221 -0.595682 0
    outer loop
      vertex -2.31903 -1.90317 0
      vertex -2.4944 -1.6667 2.4
      vertex -2.4944 -1.6667 0
    endloop
  endfacet
  facet normal -0.803221 -0.595682 0
    outer loop
      vertex -2.31903 -1.90317 0
      vertex -2.31903 -1.90317 2.4
      vertex -2.4944 -1.6667 2.4
    endloop
  endfacet
  facet normal -0.740935 -0.671577 0
    outer loop
      vertex -2.12131 -2.12131 0
      vertex -2.31903 -1.90317 2.4
      vertex -2.31903 -1.90317 0
    endloop
  endfacet
  facet normal -0.740935 -0.671577 0
    outer loop
      vertex -2.12131 -2.12131 0
      vertex -2.12131 -2.12131 2.4
      vertex -2.31903 -1.90317 2.4
    endloop
  endfacet
  facet normal -0.671577 -0.740935 0
    outer loop
      vertex -1.90317 -2.31903 0
      vertex -2.12131 -2.12131 2.4
      vertex -2.12131 -2.12131 0
    endloop
  endfacet
  facet normal -0.671577 -0.740935 0
    outer loop
      vertex -1.90317 -2.31903 0
      vertex -1.90317 -2.31903 2.4
      vertex -2.12131 -2.12131 2.4
    endloop
  endfacet
  facet normal -0.595682 -0.803221 0
    outer loop
      vertex -1.6667 -2.4944 0
      vertex -1.90317 -2.31903 2.4
      vertex -1.90317 -2.31903 0
    endloop
  endfacet
  facet normal -0.595682 -0.803221 0
    outer loop
      vertex -1.6667 -2.4944 0
      vertex -1.6667 -2.4944 2.4
      vertex -1.90317 -2.31903 2.4
    endloop
  endfacet
  facet normal -0.514091 -0.857736 0
    outer loop
      vertex -1.41418 -2.64575 0
      vertex -1.6667 -2.4944 2.4
      vertex -1.6667 -2.4944 0
    endloop
  endfacet
  facet normal -0.514091 -0.857736 0
    outer loop
      vertex -1.41418 -2.64575 0
      vertex -1.41418 -2.64575 2.4
      vertex -1.6667 -2.4944 2.4
    endloop
  endfacet
  facet normal -0.427597 -0.903969 0
    outer loop
      vertex -1.14804 -2.77164 0
      vertex -1.41418 -2.64575 2.4
      vertex -1.41418 -2.64575 0
    endloop
  endfacet
  facet normal -0.427597 -0.903969 0
    outer loop
      vertex -1.14804 -2.77164 0
      vertex -1.14804 -2.77164 2.4
      vertex -1.41418 -2.64575 2.4
    endloop
  endfacet
  facet normal -0.336889 -0.941544 0
    outer loop
      vertex -0.87085 -2.87082 0
      vertex -1.14804 -2.77164 2.4
      vertex -1.14804 -2.77164 0
    endloop
  endfacet
  facet normal -0.336889 -0.941544 0
    outer loop
      vertex -0.87085 -2.87082 0
      vertex -0.87085 -2.87082 2.4
      vertex -1.14804 -2.77164 2.4
    endloop
  endfacet
  facet normal -0.242964 -0.970035 0
    outer loop
      vertex -0.585266 -2.94235 0
      vertex -0.87085 -2.87082 2.4
      vertex -0.87085 -2.87082 0
    endloop
  endfacet
  facet normal -0.242964 -0.970035 0
    outer loop
      vertex -0.585266 -2.94235 0
      vertex -0.585266 -2.94235 2.4
      vertex -0.87085 -2.87082 2.4
    endloop
  endfacet
  facet normal -0.146731 -0.989176 0
    outer loop
      vertex -0.294037 -2.98555 0
      vertex -0.585266 -2.94235 2.4
      vertex -0.585266 -2.94235 0
    endloop
  endfacet
  facet normal -0.146731 -0.989176 0
    outer loop
      vertex -0.294037 -2.98555 0
      vertex -0.294037 -2.98555 2.4
      vertex -0.585266 -2.94235 2.4
    endloop
  endfacet
  facet normal -0.0490842 -0.998795 0
    outer loop
      vertex 0 -3 0
      vertex -0.294037 -2.98555 2.4
      vertex -0.294037 -2.98555 0
    endloop
  endfacet
  facet normal -0.0490842 -0.998795 0
    outer loop
      vertex 0 -3 0
      vertex 0 -3 2.4
      vertex -0.294037 -2.98555 2.4
    endloop
  endfacet
  facet normal 0.0490842 -0.998795 0
    outer loop
      vertex 0.294037 -2.98555 0
      vertex 0 -3 2.4
      vertex 0 -3 0
    endloop
  endfacet
  facet normal 0.0490842 -0.998795 0
    outer loop
      vertex 0.294037 -2.98555 0
      vertex 0.294037 -2.98555 2.4
      vertex 0 -3 2.4
    endloop
  endfacet
  facet normal 0.146731 -0.989176 0
    outer loop
      vertex 0.585266 -2.94235 0
      vertex 0.294037 -2.98555 2.4
      vertex 0.294037 -2.98555 0
    endloop
  endfacet
  facet normal 0.146731 -0.989176 0
    outer loop
      vertex 0.585266 -2.94235 0
      vertex 0.585266 -2.94235 2.4
      vertex 0.294037 -2.98555 2.4
    endloop
  endfacet
  facet normal 0.242964 -0.970035 0
    outer loop
      vertex 0.87085 -2.87082 0
      vertex 0.585266 -2.94235 2.4
      vertex 0.585266 -2.94235 0
    endloop
  endfacet
  facet normal 0.242964 -0.970035 0
    outer loop
      vertex 0.87085 -2.87082 0
      vertex 0.87085 -2.87082 2.4
      vertex 0.585266 -2.94235 2.4
    endloop
  endfacet
  facet normal 0.336889 -0.941544 0
    outer loop
      vertex 1.14804 -2.77164 0
      vertex 0.87085 -2.87082 2.4
      vertex 0.87085 -2.87082 0
    endloop
  endfacet
  facet normal 0.336889 -0.941544 0
    outer loop
      vertex 1.14804 -2.77164 0
      vertex 1.14804 -2.77164 2.4
      vertex 0.87085 -2.87082 2.4
    endloop
  endfacet
  facet normal 0.427597 -0.903969 0
    outer loop
      vertex 1.41418 -2.64575 0
      vertex 1.14804 -2.77164 2.4
      vertex 1.14804 -2.77164 0
    endloop
  endfacet
  facet normal 0.427597 -0.903969 0
    outer loop
      vertex 1.41418 -2.64575 0
      vertex 1.41418 -2.64575 2.4
      vertex 1.14804 -2.77164 2.4
    endloop
  endfacet
  facet normal 0.514091 -0.857736 0
    outer loop
      vertex 1.6667 -2.4944 0
      vertex 1.41418 -2.64575 2.4
      vertex 1.41418 -2.64575 0
    endloop
  endfacet
  facet normal 0.514091 -0.857736 0
    outer loop
      vertex 1.6667 -2.4944 0
      vertex 1.6667 -2.4944 2.4
      vertex 1.41418 -2.64575 2.4
    endloop
  endfacet
  facet normal 0.595682 -0.803221 0
    outer loop
      vertex 1.90317 -2.31903 0
      vertex 1.6667 -2.4944 2.4
      vertex 1.6667 -2.4944 0
    endloop
  endfacet
  facet normal 0.595682 -0.803221 0
    outer loop
      vertex 1.90317 -2.31903 0
      vertex 1.90317 -2.31903 2.4
      vertex 1.6667 -2.4944 2.4
    endloop
  endfacet
  facet normal 0.671557 -0.740953 0
    outer loop
      vertex 2.0345 -2.2 0
      vertex 1.90317 -2.31903 2.4
      vertex 1.90317 -2.31903 0
    endloop
  endfacet
  facet normal 0.671557 -0.740953 0
    outer loop
      vertex 2.0345 -2.2 0
      vertex 2.0345 -2.2 2.4
      vertex 1.90317 -2.31903 2.4
    endloop
  endfacet
  facet normal 0 -1 0
    outer loop
      vertex 10 -2.2 0
      vertex 2.0345 -2.2 2.4
      vertex 2.0345 -2.2 0
    endloop
  endfacet
  facet normal 0 -1 0
    outer loop
      vertex 10 -2.2 0
      vertex 10 -2.2 2.4
      vertex 2.0345 -2.2 2.4
    endloop
  endfacet
  facet normal -0.668965 -0.743294 0
    outer loop
      vertex 12 -4 0
      vertex 10 -2.2 2.4
      vertex 10 -2.2 0
    endloop
  endfacet
  facet normal -0.668965 -0.743294 0
    outer loop
      vertex 12 -4 0
      vertex 12 -4 2.4
      vertex 10 -2.2 2.4
    endloop
  endfacet
  facet normal 0 -1 0
    outer loop
      vertex 36 -4 0
      vertex 12 -4 2.4
      vertex 12 -4 0
    endloop
  endfacet
  facet normal 0 -1 0
    outer loop
      vertex 36 -4 0
      vertex 36 -4 2.4
      vertex 12 -4 2.4
    endloop
  endfacet
  facet normal 1 0 0
    outer loop
      vertex 36 4 0
      vertex 36 -4 2.4
      vertex 36 -4 0
    endloop
  endfacet
  facet normal 1 0 -0
    outer loop
      vertex 36 4 0
      vertex 36 4 2.4
      vertex 36 -4 2.4
    endloop
  endfacet
  facet normal 0.146651 0.989188 -0
    outer loop
      vertex -0.22435 -1.1279 0
      vertex -0.22435 -1.1279 2.4
      vertex -0.112717 -1.14445 0
    endloop
  endfacet
  facet normal 0.146651 0.989188 0
    outer loop
      vertex -0.112717 -1.14445 2.4
      vertex -0.112717 -1.14445 0
      vertex -0.22435 -1.1279 2.4
    endloop
  endfacet
  facet normal 0.24298 0.970031 -0
    outer loop
      vertex -0.333817 -1.10048 0
      vertex -0.333817 -1.10048 2.4
      vertex -0.22435 -1.1279 0
    endloop
  endfacet
  facet normal 0.24298 0.970031 0
    outer loop
      vertex -0.22435 -1.1279 2.4
      vertex -0.22435 -1.1279 0
      vertex -0.333817 -1.10048 2.4
    endloop
  endfacet
  facet normal 0.336959 0.941519 -0
    outer loop
      vertex -0.440079 -1.06245 0
      vertex -0.440079 -1.06245 2.4
      vertex -0.333817 -1.10048 0
    endloop
  endfacet
  facet normal 0.336959 0.941519 0
    outer loop
      vertex -0.333817 -1.10048 2.4
      vertex -0.333817 -1.10048 0
      vertex -0.440079 -1.06245 2.4
    endloop
  endfacet
  facet normal 0.427469 0.90403 -0
    outer loop
      vertex -0.542099 -1.01421 0
      vertex -0.542099 -1.01421 2.4
      vertex -0.440079 -1.06245 0
    endloop
  endfacet
  facet normal 0.427469 0.90403 0
    outer loop
      vertex -0.440079 -1.06245 2.4
      vertex -0.440079 -1.06245 0
      vertex -0.542099 -1.01421 2.4
    endloop
  endfacet
  facet normal 0.514182 0.857681 -0
    outer loop
      vertex -0.638901 -0.956177 0
      vertex -0.638901 -0.956177 2.4
      vertex -0.542099 -1.01421 0
    endloop
  endfacet
  facet normal 0.514182 0.857681 0
    outer loop
      vertex -0.542099 -1.01421 2.4
      vertex -0.542099 -1.01421 0
      vertex -0.638901 -0.956177 2.4
    endloop
  endfacet
  facet normal 0.595665 0.803233 -0
    outer loop
      vertex -0.729538 -0.888962 0
      vertex -0.729538 -0.888962 2.4
      vertex -0.638901 -0.956177 0
    endloop
  endfacet
  facet normal 0.595665 0.803233 0
    outer loop
      vertex -0.638901 -0.956177 2.4
      vertex -0.638901 -0.956177 0
      vertex -0.729538 -0.888962 2.4
    endloop
  endfacet
  facet normal 0.671513 0.740993 -0
    outer loop
      vertex -0.813171 -0.813171 0
      vertex -0.813171 -0.813171 2.4
      vertex -0.729538 -0.888962 0
    endloop
  endfacet
  facet normal 0.671513 0.740993 0
    outer loop
      vertex -0.729538 -0.888962 2.4
      vertex -0.729538 -0.888962 0
      vertex -0.813171 -0.813171 2.4
    endloop
  endfacet
  facet normal 0.740993 0.671513 -0
    outer loop
      vertex -0.888962 -0.729538 0
      vertex -0.888962 -0.729538 2.4
      vertex -0.813171 -0.813171 0
    endloop
  endfacet
  facet normal 0.740993 0.671513 0
    outer loop
      vertex -0.813171 -0.813171 2.4
      vertex -0.813171 -0.813171 0
      vertex -0.888962 -0.729538 2.4
    endloop
  endfacet
  facet normal 0.803233 0.595665 -0
    outer loop
      vertex -0.956177 -0.638901 0
      vertex -0.956177 -0.638901 2.4
      vertex -0.888962 -0.729538 0
    endloop
  endfacet
  facet normal 0.803233 0.595665 0
    outer loop
      vertex -0.888962 -0.729538 2.4
      vertex -0.888962 -0.729538 0
      vertex -0.956177 -0.638901 2.4
    endloop
  endfacet
  facet normal 0.857681 0.514182 -0
    outer loop
      vertex -1.01421 -0.542099 0
      vertex -1.01421 -0.542099 2.4
      vertex -0.956177 -0.638901 0
    endloop
  endfacet
  facet normal 0.857681 0.514182 0
    outer loop
      vertex -0.956177 -0.638901 2.4
      vertex -0.956177 -0.638901 0
      vertex -1.01421 -0.542099 2.4
    endloop
  endfacet
  facet normal 0.90403 0.427469 -0
    outer loop
      vertex -1.06245 -0.440079 0
      vertex -1.06245 -0.440079 2.4
      vertex -1.01421 -0.542099 0
    endloop
  endfacet
  facet normal 0.90403 0.427469 0
    outer loop
      vertex -1.01421 -0.542099 2.4
      vertex -1.01421 -0.542099 0
      vertex -1.06245 -0.440079 2.4
    endloop
  endfacet
  facet normal 0.941519 0.336959 -0
    outer loop
      vertex -1.10048 -0.333817 0
      vertex -1.10048 -0.333817 2.4
      vertex -1.06245 -0.440079 0
    endloop
  endfacet
  facet normal 0.941519 0.336959 0
    outer loop
      vertex -1.06245 -0.440079 2.4
      vertex -1.06245 -0.440079 0
      vertex -1.10048 -0.333817 2.4
    endloop
  endfacet
  facet normal 0.970031 0.24298 -0
    outer loop
      vertex -1.1279 -0.22435 0
      vertex -1.1279 -0.22435 2.4
      vertex -1.10048 -0.333817 0
    endloop
  endfacet
  facet normal 0.970031 0.24298 0
    outer loop
      vertex -1.10048 -0.333817 2.4
      vertex -1.10048 -0.333817 0
      vertex -1.1279 -0.22435 2.4
    endloop
  endfacet
  facet normal 0.989188 0.146651 -0
    outer loop
      vertex -1.14445 -0.112717 0
      vertex -1.14445 -0.112717 2.4
      vertex -1.1279 -0.22435 0
    endloop
  endfacet
  facet normal 0.989188 0.146651 0
    outer loop
      vertex -1.1279 -0.22435 2.4
      vertex -1.1279 -0.22435 0
      vertex -1.14445 -0.112717 2.4
    endloop
  endfacet
  facet normal 0.998794 0.0490904 -0
    outer loop
      vertex -1.14999 0 0
      vertex -1.14999 0 2.4
      vertex -1.14445 -0.112717 0
    endloop
  endfacet
  facet normal 0.998794 0.0490904 0
    outer loop
      vertex -1.14445 -0.112717 2.4
      vertex -1.14445 -0.112717 0
      vertex -1.14999 0 2.4
    endloop
  endfacet
  facet normal 0.998794 -0.0490904 0
    outer loop
      vertex -1.14445 0.112717 0
      vertex -1.14445 0.112717 2.4
      vertex -1.14999 0 0
    endloop
  endfacet
  facet normal 0.998794 -0.0490904 0
    outer loop
      vertex -1.14999 0 2.4
      vertex -1.14999 0 0
      vertex -1.14445 0.112717 2.4
    endloop
  endfacet
  facet normal 0.989188 -0.146651 0
    outer loop
      vertex -1.1279 0.22435 0
      vertex -1.1279 0.22435 2.4
      vertex -1.14445 0.112717 0
    endloop
  endfacet
  facet normal 0.989188 -0.146651 0
    outer loop
      vertex -1.14445 0.112717 2.4
      vertex -1.14445 0.112717 0
      vertex -1.1279 0.22435 2.4
    endloop
  endfacet
  facet normal 0.970031 -0.24298 0
    outer loop
      vertex -1.10048 0.333817 0
      vertex -1.10048 0.333817 2.4
      vertex -1.1279 0.22435 0
    endloop
  endfacet
  facet normal 0.970031 -0.24298 0
    outer loop
      vertex -1.1279 0.22435 2.4
      vertex -1.1279 0.22435 0
      vertex -1.10048 0.333817 2.4
    endloop
  endfacet
  facet normal 0.941519 -0.336959 0
    outer loop
      vertex -1.06245 0.440079 0
      vertex -1.06245 0.440079 2.4
      vertex -1.10048 0.333817 0
    endloop
  endfacet
  facet normal 0.941519 -0.336959 0
    outer loop
      vertex -1.10048 0.333817 2.4
      vertex -1.10048 0.333817 0
      vertex -1.06245 0.440079 2.4
    endloop
  endfacet
  facet normal 0.90403 -0.427469 0
    outer loop
      vertex -1.01421 0.542099 0
      vertex -1.01421 0.542099 2.4
      vertex -1.06245 0.440079 0
    endloop
  endfacet
  facet normal 0.90403 -0.427469 0
    outer loop
      vertex -1.06245 0.440079 2.4
      vertex -1.06245 0.440079 0
      vertex -1.01421 0.542099 2.4
    endloop
  endfacet
  facet normal 0.857681 -0.514182 0
    outer loop
      vertex -0.956177 0.638901 0
      vertex -0.956177 0.638901 2.4
      vertex -1.01421 0.542099 0
    endloop
  endfacet
  facet normal 0.857681 -0.514182 0
    outer loop
      vertex -1.01421 0.542099 2.4
      vertex -1.01421 0.542099 0
      vertex -0.956177 0.638901 2.4
    endloop
  endfacet
  facet normal 0.803233 -0.595665 0
    outer loop
      vertex -0.888962 0.729538 0
      vertex -0.888962 0.729538 2.4
      vertex -0.956177 0.638901 0
    endloop
  endfacet
  facet normal 0.803233 -0.595665 0
    outer loop
      vertex -0.956177 0.638901 2.4
      vertex -0.956177 0.638901 0
      vertex -0.888962 0.729538 2.4
    endloop
  endfacet
  facet normal 0.740993 -0.671513 0
    outer loop
      vertex -0.813171 0.813171 0
      vertex -0.813171 0.813171 2.4
      vertex -0.888962 0.729538 0
    endloop
  endfacet
  facet normal 0.740993 -0.671513 0
    outer loop
      vertex -0.888962 0.729538 2.4
      vertex -0.888962 0.729538 0
      vertex -0.813171 0.813171 2.4
    endloop
  endfacet
  facet normal 0.671513 -0.740993 0
    outer loop
      vertex -0.729538 0.888962 0
      vertex -0.729538 0.888962 2.4
      vertex -0.813171 0.813171 0
    endloop
  endfacet
  facet normal 0.671513 -0.740993 0
    outer loop
      vertex -0.813171 0.813171 2.4
      vertex -0.813171 0.813171 0
      vertex -0.729538 0.888962 2.4
    endloop
  endfacet
  facet normal 0.595665 -0.803233 0
    outer loop
      vertex -0.638901 0.956177 0
      vertex -0.638901 0.956177 2.4
      vertex -0.729538 0.888962 0
    endloop
  endfacet
  facet normal 0.595665 -0.803233 0
    outer loop
      vertex -0.729538 0.888962 2.4
      vertex -0.729538 0.888962 0
      vertex -0.638901 0.956177 2.4
    endloop
  endfacet
  facet normal 0.514182 -0.857681 0
    outer loop
      vertex -0.542099 1.01421 0
      vertex -0.542099 1.01421 2.4
      vertex -0.638901 0.956177 0
    endloop
  endfacet
  facet normal 0.514182 -0.857681 0
    outer loop
      vertex -0.638901 0.956177 2.4
      vertex -0.638901 0.956177 0
      vertex -0.542099 1.01421 2.4
    endloop
  endfacet
  facet normal 0.427469 -0.90403 0
    outer loop
      vertex -0.440079 1.06245 0
      vertex -0.440079 1.06245 2.4
      vertex -0.542099 1.01421 0
    endloop
  endfacet
  facet normal 0.427469 -0.90403 0
    outer loop
      vertex -0.542099 1.01421 2.4
      vertex -0.542099 1.01421 0
      vertex -0.440079 1.06245 2.4
    endloop
  endfacet
  facet normal 0.336959 -0.941519 0
    outer loop
      vertex -0.333817 1.10048 0
      vertex -0.333817 1.10048 2.4
      vertex -0.440079 1.06245 0
    endloop
  endfacet
  facet normal 0.336959 -0.941519 0
    outer loop
      vertex -0.440079 1.06245 2.4
      vertex -0.440079 1.06245 0
      vertex -0.333817 1.10048 2.4
    endloop
  endfacet
  facet normal 0.24298 -0.970031 0
    outer loop
      vertex -0.22435 1.1279 0
      vertex -0.22435 1.1279 2.4
      vertex -0.333817 1.10048 0
    endloop
  endfacet
  facet normal 0.24298 -0.970031 0
    outer loop
      vertex -0.333817 1.10048 2.4
      vertex -0.333817 1.10048 0
      vertex -0.22435 1.1279 2.4
    endloop
  endfacet
  facet normal 0.146651 -0.989188 0
    outer loop
      vertex -0.112717 1.14445 0
      vertex -0.112717 1.14445 2.4
      vertex -0.22435 1.1279 0
    endloop
  endfacet
  facet normal 0.146651 -0.989188 0
    outer loop
      vertex -0.22435 1.1279 2.4
      vertex -0.22435 1.1279 0
      vertex -0.112717 1.14445 2.4
    endloop
  endfacet
  facet normal 0.0490904 -0.998794 0
    outer loop
      vertex 0 1.14999 0
      vertex 0 1.14999 2.4
      vertex -0.112717 1.14445 0
    endloop
  endfacet
  facet normal 0.0490904 -0.998794 0
    outer loop
      vertex -0.112717 1.14445 2.4
      vertex -0.112717 1.14445 0
      vertex 0 1.14999 2.4
    endloop
  endfacet
  facet normal -0.0490904 -0.998794 0
    outer loop
      vertex 0.112717 1.14445 0
      vertex 0.112717 1.14445 2.4
      vertex 0 1.14999 0
    endloop
  endfacet
  facet normal -0.0490904 -0.998794 -0
    outer loop
      vertex 0 1.14999 2.4
      vertex 0 1.14999 0
      vertex 0.112717 1.14445 2.4
    endloop
  endfacet
  facet normal -0.146651 -0.989188 0
    outer loop
      vertex 0.22435 1.1279 0
      vertex 0.22435 1.1279 2.4
      vertex 0.112717 1.14445 0
    endloop
  endfacet
  facet normal -0.146651 -0.989188 -0
    outer loop
      vertex 0.112717 1.14445 2.4
      vertex 0.112717 1.14445 0
      vertex 0.22435 1.1279 2.4
    endloop
  endfacet
  facet normal -0.24298 -0.970031 0
    outer loop
      vertex 0.333817 1.10048 0
      vertex 0.333817 1.10048 2.4
      vertex 0.22435 1.1279 0
    endloop
  endfacet
  facet normal -0.24298 -0.970031 -0
    outer loop
      vertex 0.22435 1.1279 2.4
      vertex 0.22435 1.1279 0
      vertex 0.333817 1.10048 2.4
    endloop
  endfacet
  facet normal -0.336959 -0.941519 0
    outer loop
      vertex 0.440079 1.06245 0
      vertex 0.440079 1.06245 2.4
      vertex 0.333817 1.10048 0
    endloop
  endfacet
  facet normal -0.336959 -0.941519 -0
    outer loop
      vertex 0.333817 1.10048 2.4
      vertex 0.333817 1.10048 0
      vertex 0.440079 1.06245 2.4
    endloop
  endfacet
  facet normal -0.427469 -0.90403 0
    outer loop
      vertex 0.542099 1.01421 0
      vertex 0.542099 1.01421 2.4
      vertex 0.440079 1.06245 0
    endloop
  endfacet
  facet normal -0.427469 -0.90403 -0
    outer loop
      vertex 0.440079 1.06245 2.4
      vertex 0.440079 1.06245 0
      vertex 0.542099 1.01421 2.4
    endloop
  endfacet
  facet normal -0.514182 -0.857681 0
    outer loop
      vertex 0.638901 0.956177 0
      vertex 0.638901 0.956177 2.4
      vertex 0.542099 1.01421 0
    endloop
  endfacet
  facet normal -0.514182 -0.857681 -0
    outer loop
      vertex 0.542099 1.01421 2.4
      vertex 0.542099 1.01421 0
      vertex 0.638901 0.956177 2.4
    endloop
  endfacet
  facet normal -0.595665 -0.803233 0
    outer loop
      vertex 0.729538 0.888962 0
      vertex 0.729538 0.888962 2.4
      vertex 0.638901 0.956177 0
    endloop
  endfacet
  facet normal -0.595665 -0.803233 -0
    outer loop
      vertex 0.638901 0.956177 2.4
      vertex 0.638901 0.956177 0
      vertex 0.729538 0.888962 2.4
    endloop
  endfacet
  facet normal -0.671513 -0.740993 0
    outer loop
      vertex 0.813171 0.813171 0
      vertex 0.813171 0.813171 2.4
      vertex 0.729538 0.888962 0
    endloop
  endfacet
  facet normal -0.671513 -0.740993 -0
    outer loop
      vertex 0.729538 0.888962 2.4
      vertex 0.729538 0.888962 0
      vertex 0.813171 0.813171 2.4
    endloop
  endfacet
  facet normal -0.740993 -0.671513 0
    outer loop
      vertex 0.888962 0.729538 0
      vertex 0.888962 0.729538 2.4
      vertex 0.813171 0.813171 0
    endloop
  endfacet
  facet normal -0.740993 -0.671513 -0
    outer loop
      vertex 0.813171 0.813171 2.4
      vertex 0.813171 0.813171 0
      vertex 0.888962 0.729538 2.4
    endloop
  endfacet
  facet normal -0.803233 -0.595665 0
    outer loop
      vertex 0.956177 0.638901 0
      vertex 0.956177 0.638901 2.4
      vertex 0.888962 0.729538 0
    endloop
  endfacet
  facet normal -0.803233 -0.595665 -0
    outer loop
      vertex 0.888962 0.729538 2.4
      vertex 0.888962 0.729538 0
      vertex 0.956177 0.638901 2.4
    endloop
  endfacet
  facet normal -0.857681 -0.514182 0
    outer loop
      vertex 1.01421 0.542099 0
      vertex 1.01421 0.542099 2.4
      vertex 0.956177 0.638901 0
    endloop
  endfacet
  facet normal -0.857681 -0.514182 -0
    outer loop
      vertex 0.956177 0.638901 2.4
      vertex 0.956177 0.638901 0
      vertex 1.01421 0.542099 2.4
    endloop
  endfacet
  facet normal -0.90403 -0.427469 0
    outer loop
      vertex 1.06245 0.440079 0
      vertex 1.06245 0.440079 2.4
      vertex 1.01421 0.542099 0
    endloop
  endfacet
  facet normal -0.90403 -0.427469 -0
    outer loop
      vertex 1.01421 0.542099 2.4
      vertex 1.01421 0.542099 0
      vertex 1.06245 0.440079 2.4
    endloop
  endfacet
  facet normal -0.941519 -0.336959 0
    outer loop
      vertex 1.10048 0.333817 0
      vertex 1.10048 0.333817 2.4
      vertex 1.06245 0.440079 0
    endloop
  endfacet
  facet normal -0.941519 -0.336959 -0
    outer loop
      vertex 1.06245 0.440079 2.4
      vertex 1.06245 0.440079 0
      vertex 1.10048 0.333817 2.4
    endloop
  endfacet
  facet normal -0.970031 -0.24298 0
    outer loop
      vertex 1.1279 0.22435 0
      vertex 1.1279 0.22435 2.4
      vertex 1.10048 0.333817 0
    endloop
  endfacet
  facet normal -0.970031 -0.24298 -0
    outer loop
      vertex 1.10048 0.333817 2.4
      vertex 1.10048 0.333817 0
      vertex 1.1279 0.22435 2.4
    endloop
  endfacet
  facet normal -0.989188 -0.146651 0
    outer loop
      vertex 1.14445 0.112717 0
      vertex 1.14445 0.112717 2.4
      vertex 1.1279 0.22435 0
    endloop
  endfacet
  facet normal -0.989188 -0.146651 -0
    outer loop
      vertex 1.1279 0.22435 2.4
      vertex 1.1279 0.22435 0
      vertex 1.14445 0.112717 2.4
    endloop
  endfacet
  facet normal -0.998794 -0.0490904 0
    outer loop
      vertex 1.14999 0 0
      vertex 1.14999 0 2.4
      vertex 1.14445 0.112717 0
    endloop
  endfacet
  facet normal -0.998794 -0.0490904 -0
    outer loop
      vertex 1.14445 0.112717 2.4
      vertex 1.14445 0.112717 0
      vertex 1.14999 0 2.4
    endloop
  endfacet
  facet normal -0.998794 0.0490904 0
    outer loop
      vertex 1.14445 -0.112717 0
      vertex 1.14445 -0.112717 2.4
      vertex 1.14999 0 0
    endloop
  endfacet
  facet normal -0.998794 0.0490904 0
    outer loop
      vertex 1.14999 0 2.4
      vertex 1.14999 0 0
      vertex 1.14445 -0.112717 2.4
    endloop
  endfacet
  facet normal -0.989188 0.146651 0
    outer loop
      vertex 1.1279 -0.22435 0
      vertex 1.1279 -0.22435 2.4
      vertex 1.14445 -0.112717 0
    endloop
  endfacet
  facet normal -0.989188 0.146651 0
    outer loop
      vertex 1.14445 -0.112717 2.4
      vertex 1.14445 -0.112717 0
      vertex 1.1279 -0.22435 2.4
    endloop
  endfacet
  facet normal -0.970031 0.24298 0
    outer loop
      vertex 1.10048 -0.333817 0
      vertex 1.10048 -0.333817 2.4
      vertex 1.1279 -0.22435 0
    endloop
  endfacet
  facet normal -0.970031 0.24298 0
    outer loop
      vertex 1.1279 -0.22435 2.4
      vertex 1.1279 -0.22435 0
      vertex 1.10048 -0.333817 2.4
    endloop
  endfacet
  facet normal -0.941519 0.336959 0
    outer loop
      vertex 1.06245 -0.440079 0
      vertex 1.06245 -0.440079 2.4
      vertex 1.10048 -0.333817 0
    endloop
  endfacet
  facet normal -0.941519 0.336959 0
    outer loop
      vertex 1.10048 -0.333817 2.4
      vertex 1.10048 -0.333817 0
      vertex 1.06245 -0.440079 2.4
    endloop
  endfacet
  facet normal -0.90403 0.427469 0
    outer loop
      vertex 1.01421 -0.542099 0
      vertex 1.01421 -0.542099 2.4
      vertex 1.06245 -0.440079 0
    endloop
  endfacet
  facet normal -0.90403 0.427469 0
    outer loop
      vertex 1.06245 -0.440079 2.4
      vertex 1.06245 -0.440079 0
      vertex 1.01421 -0.542099 2.4
    endloop
  endfacet
  facet normal -0.857681 0.514182 0
    outer loop
      vertex 0.956177 -0.638901 0
      vertex 0.956177 -0.638901 2.4
      vertex 1.01421 -0.542099 0
    endloop
  endfacet
  facet normal -0.857681 0.514182 0
    outer loop
      vertex 1.01421 -0.542099 2.4
      vertex 1.01421 -0.542099 0
      vertex 0.956177 -0.638901 2.4
    endloop
  endfacet
  facet normal -0.803233 0.595665 0
    outer loop
      vertex 0.888962 -0.729538 0
      vertex 0.888962 -0.729538 2.4
      vertex 0.956177 -0.638901 0
    endloop
  endfacet
  facet normal -0.803233 0.595665 0
    outer loop
      vertex 0.956177 -0.638901 2.4
      vertex 0.956177 -0.638901 0
      vertex 0.888962 -0.729538 2.4
    endloop
  endfacet
  facet normal -0.740993 0.671513 0
    outer loop
      vertex 0.813171 -0.813171 0
      vertex 0.813171 -0.813171 2.4
      vertex 0.888962 -0.729538 0
    endloop
  endfacet
  facet normal -0.740993 0.671513 0
    outer loop
      vertex 0.888962 -0.729538 2.4
      vertex 0.888962 -0.729538 0
      vertex 0.813171 -0.813171 2.4
    endloop
  endfacet
  facet normal -0.671513 0.740993 0
    outer loop
      vertex 0.729538 -0.888962 0
      vertex 0.729538 -0.888962 2.4
      vertex 0.813171 -0.813171 0
    endloop
  endfacet
  facet normal -0.671513 0.740993 0
    outer loop
      vertex 0.813171 -0.813171 2.4
      vertex 0.813171 -0.813171 0
      vertex 0.729538 -0.888962 2.4
    endloop
  endfacet
  facet normal -0.595665 0.803233 0
    outer loop
      vertex 0.638901 -0.956177 0
      vertex 0.638901 -0.956177 2.4
      vertex 0.729538 -0.888962 0
    endloop
  endfacet
  facet normal -0.595665 0.803233 0
    outer loop
      vertex 0.729538 -0.888962 2.4
      vertex 0.729538 -0.888962 0
      vertex 0.638901 -0.956177 2.4
    endloop
  endfacet
  facet normal -0.514182 0.857681 0
    outer loop
      vertex 0.542099 -1.01421 0
      vertex 0.542099 -1.01421 2.4
      vertex 0.638901 -0.956177 0
    endloop
  endfacet
  facet normal -0.514182 0.857681 0
    outer loop
      vertex 0.638901 -0.956177 2.4
      vertex 0.638901 -0.956177 0
      vertex 0.542099 -1.01421 2.4
    endloop
  endfacet
  facet normal -0.427469 0.90403 0
    outer loop
      vertex 0.440079 -1.06245 0
      vertex 0.440079 -1.06245 2.4
      vertex 0.542099 -1.01421 0
    endloop
  endfacet
  facet normal -0.427469 0.90403 0
    outer loop
      vertex 0.542099 -1.01421 2.4
      vertex 0.542099 -1.01421 0
      vertex 0.440079 -1.06245 2.4
    endloop
  endfacet
  facet normal -0.336959 0.941519 0
    outer loop
      vertex 0.333817 -1.10048 0
      vertex 0.333817 -1.10048 2.4
      vertex 0.440079 -1.06245 0
    endloop
  endfacet
  facet normal -0.336959 0.941519 0
    outer loop
      vertex 0.440079 -1.06245 2.4
      vertex 0.440079 -1.06245 0
      vertex 0.333817 -1.10048 2.4
    endloop
  endfacet
  facet normal -0.24298 0.970031 0
    outer loop
      vertex 0.22435 -1.1279 0
      vertex 0.22435 -1.1279 2.4
      vertex 0.333817 -1.10048 0
    endloop
  endfacet
  facet normal -0.24298 0.970031 0
    outer loop
      vertex 0.333817 -1.10048 2.4
      vertex 0.333817 -1.10048 0
      vertex 0.22435 -1.1279 2.4
    endloop
  endfacet
  facet normal -0.146651 0.989188 0
    outer loop
      vertex 0.112717 -1.14445 0
      vertex 0.112717 -1.14445 2.4
      vertex 0.22435 -1.1279 0
    endloop
  endfacet
  facet normal -0.146651 0.989188 0
    outer loop
      vertex 0.22435 -1.1279 2.4
      vertex 0.22435 -1.1279 0
      vertex 0.112717 -1.14445 2.4
    endloop
  endfacet
  facet normal -0.0490904 0.998794 0
    outer loop
      vertex 0 -1.14999 0
      vertex 0 -1.14999 2.4
      vertex 0.112717 -1.14445 0
    endloop
  endfacet
  facet normal -0.0490904 0.998794 0
    outer loop
      vertex 0.112717 -1.14445 2.4
      vertex 0.112717 -1.14445 0
      vertex 0 -1.14999 2.4
    endloop
  endfacet
  facet normal 0.0490904 0.998794 -0
    outer loop
      vertex -0.112717 -1.14445 0
      vertex -0.112717 -1.14445 2.4
      vertex 0 -1.14999 0
    endloop
  endfacet
  facet normal 0.0490904 0.998794 0
    outer loop
      vertex 0 -1.14999 2.4
      vertex 0 -1.14999 0
      vertex -0.112717 -1.14445 2.4
    endloop
  endfacet
endsolid OpenSCAD_Model
