solid OpenSCAD_Model
  facet normal 0 0 -1
    outer loop
      vertex 28 4 0
      vertex 31 4 0
      vertex 31 -4 0
    endloop
  endfacet
  facet normal 0 0 -1
    outer loop
      vertex 28 4 0
      vertex 31 -4 0
      vertex 28 -4 0
    endloop
  endfacet
  facet normal 0 -0 1
    outer loop
      vertex 31 -4 2.4
      vertex 31 4 2.4
      vertex 28 4 2.4
    endloop
  endfacet
  facet normal 0 0 1
    outer loop
      vertex 28 -4 2.4
      vertex 31 -4 2.4
      vertex 28 4 2.4
    endloop
  endfacet
  facet normal 0 1 0
    outer loop
      vertex 28 4 0
      vertex 31 4 2.4
      vertex 31 4 0
    endloop
  endfacet
  facet normal 0 1 0
    outer loop
      vertex 28 4 0
      vertex 28 4 2.4
      vertex 31 4 2.4
    endloop
  endfacet
  facet normal -1 0 0
    outer loop
      vertex 28 -4 0
      vertex 28 4 2.4
      vertex 28 4 0
    endloop
  endfacet
  facet normal -1 0 0
    outer loop
      vertex 28 -4 0
      vertex 28 -4 2.4
      vertex 28 4 2.4
    endloop
  endfacet
  facet normal 0 -1 0
    outer loop
      vertex 31 -4 0
      vertex 28 -4 2.4
      vertex 28 -4 0
    endloop
  endfacet
  facet normal 0 -1 0
    outer loop
      vertex 31 -4 0
      vertex 31 -4 2.4
      vertex 28 -4 2.4
    endloop
  endfacet
  facet normal 1 0 0
    outer loop
      vertex 31 4 0
      vertex 31 -4 2.4
      vertex 31 -4 0
    endloop
  endfacet
  facet normal 1 0 -0
    outer loop
      vertex 31 4 0
      vertex 31 4 2.4
      vertex 31 -4 2.4
    endloop
  endfacet
endsolid OpenSCAD_Model
